<?xml version="1.0" standalone="no"?>
<!DOCTYPE svg PUBLIC "-//W3C//DTD SVG 1.1//EN" "http://www.w3.org/Graphics/SVG/1.1/DTD/svg11.dtd" >
<svg xmlns="http://www.w3.org/2000/svg" xmlns:xlink="http://www.w3.org/1999/xlink" version="1.1">
<metadata></metadata>
<defs>
<font id="abhaya_libreregular" horiz-adv-x="1000" >
<font-face units-per-em="2048" ascent="1638" descent="-410" />
<missing-glyph horiz-adv-x="390" />
<glyph unicode="&#xfb01;" horiz-adv-x="1160" d="M474 52h-112v746h442v-642q0 -90 -100 -102q-22 -2 -48 -2v-52h454q0 46 -26 50q-10 2 -22 2h-108v798h-592v12q0 330 152 384q40 14 88 14q102 0 148 -86q6 -10 16 -30q34 -70 72 -84q20 -8 42 -8q74 0 88 60q2 10 2 20q0 80 -100 132q-86 46 -218 46q-284 0 -390 -198 q-50 -96 -50 -230v-32h-142v-52h142v-642q-4 -104 -152 -104v-52h462q0 46 -26 50q-10 2 -22 2z" />
<glyph unicode="&#xfb02;" horiz-adv-x="1162" d="M1114 0q0 46 -26 50q-10 2 -22 2h-110v1248h-234q-98 10 -160 10q-222 0 -306 -194q-44 -98 -44 -234v-32h-142v-52h142v-642q-4 -104 -152 -104v-52h462q0 46 -26 50q-10 2 -22 2h-112v746h220v52h-220v12q0 278 84 352q50 44 140 44q112 0 218 -40v-1058q0 -82 -54 -98 q-32 -10 -92 -10v-52h456z" />
<glyph horiz-adv-x="0" />
<glyph unicode="&#xd;" horiz-adv-x="682" />
<glyph unicode=" "  horiz-adv-x="390" />
<glyph unicode="&#x09;" horiz-adv-x="390" />
<glyph unicode="&#xa0;" horiz-adv-x="390" />
<glyph unicode="!" horiz-adv-x="558" d="M308 334q0 256 54 568q22 126 22 190q0 118 -86 126q-8 2 -18 2q-104 -4 -106 -132q0 -54 34 -264q40 -238 40 -490h60zM378 92q0 66 -60 94q-20 10 -42 10q-66 0 -92 -60q-10 -22 -10 -44q0 -64 58 -92q22 -10 44 -10q64 0 92 58q10 22 10 44z" />
<glyph unicode="&#x22;" horiz-adv-x="612" d="M184 1310q-66 0 -82 -60q-2 -12 -2 -24q0 -20 32 -166q20 -90 24 -160h54q4 64 44 250q12 52 12 78q0 64 -58 78q-12 4 -24 4zM430 1310q-76 -14 -84 -84q0 -20 32 -166q20 -90 24 -160h54q4 64 44 250q12 52 12 78q0 64 -58 78q-12 4 -24 4z" />
<glyph unicode="#" horiz-adv-x="1158" d="M644 -20h60l54 410h254v90h-242l34 260h234v90h-222l48 370h-60l-48 -370h-288l48 370h-60l-48 -370h-262v-90h250l-34 -260h-242v-90h230l-54 -410h60l54 410h288zM710 480h-288l34 260h288z" />
<glyph unicode="$" horiz-adv-x="1076" d="M308 966q0 132 128 180q36 12 80 16v-436q-168 82 -200 180q-8 30 -8 60zM806 266q0 -180 -196 -220q-18 -4 -36 -6v478q180 -82 218 -178q14 -36 14 -74zM574 -182v166q240 18 346 156q56 76 56 174q0 176 -192 288q-48 26 -210 98v464q122 -8 156 -104q6 -18 14 -52 q18 -82 52 -102q26 -14 64 -14q88 10 94 108q0 120 -160 182q-98 38 -218 38h-2v178h-58v-180q-226 -22 -322 -152q-50 -68 -50 -152q0 -174 192 -284q54 -30 180 -86v-508h-8q-134 0 -166 100q-6 20 -12 62q-16 90 -52 114q-28 18 -70 18q-88 0 -104 -86q-4 -16 -4 -32 q0 -122 168 -188q108 -42 244 -42h4v-164h58z" />
<glyph unicode="%" horiz-adv-x="1606" d="M378 -58l874 1278l-58 40l-876 -1280zM422 1230q-176 0 -256 -142q-46 -80 -46 -188q0 -220 146 -304q68 -38 150 -38q178 0 258 146q44 82 44 190q0 232 -160 308q-62 28 -136 28zM420 598q-104 0 -132 124q-14 66 -14 172q0 242 86 284q26 12 58 12q102 0 130 -126 q14 -64 14 -164q-2 -300 -142 -302zM1180 652q-176 0 -256 -142q-46 -80 -46 -188q0 -220 146 -304q68 -38 150 -38q178 0 258 146q44 82 44 190q0 232 -160 308q-62 28 -136 28zM1178 20q-104 0 -132 124q-14 66 -14 172q0 242 86 284q26 12 58 12q102 0 130 -126 q14 -64 14 -164q-2 -300 -142 -302z" />
<glyph unicode="&#x26;" horiz-adv-x="1184" d="M452 1008q0 122 98 154q24 8 50 8q106 0 138 -90q10 -30 10 -60q0 -94 -98 -168q-56 -42 -130 -62q-68 136 -68 218zM538 40q-224 0 -282 224q-16 64 -16 140q0 176 112 256q30 20 60 30q134 -252 390 -554q-116 -96 -264 -96zM1052 638h-2h6l62 2q46 0 52 24q4 14 4 30 h-288v-52h110q0 -222 -96 -388q-238 280 -356 492q166 46 234 174q26 50 26 100q0 130 -114 180q-44 20 -94 20q-188 0 -252 -130q-26 -54 -26 -116q2 -92 72 -240q-234 -64 -300 -254q-20 -60 -20 -128q0 -182 138 -288q110 -84 266 -84q220 2 360 118q30 -36 88 -98h282 q0 46 -32 50q-8 2 -18 2h-74q-48 52 -142 158q114 176 114 428z" />
<glyph unicode="'" horiz-adv-x="378" d="M190 1310q-76 0 -88 -64q-2 -10 -2 -20q0 -20 34 -160q24 -94 28 -166h54q4 68 48 248q14 54 14 80q0 68 -66 80q-12 2 -22 2z" />
<glyph unicode="(" horiz-adv-x="672" d="M624 1300q-282 -76 -426 -366q-98 -202 -98 -442q0 -336 178 -564q136 -172 340 -228l20 50q-210 76 -312 358q-64 180 -64 388q0 328 148 556q96 146 232 198z" />
<glyph unicode=")" horiz-adv-x="676" d="M52 1300q282 -76 426 -366q98 -202 98 -442q0 -336 -178 -564q-136 -172 -340 -228l-20 50q210 76 312 358q64 180 64 388q0 328 -148 556q-96 146 -232 198z" />
<glyph unicode="*" horiz-adv-x="668" d="M334 1300q-62 0 -70 -54q-2 -6 -2 -12q0 -14 32 -128q14 -56 20 -98q-28 22 -114 110q-56 56 -90 58q-42 0 -62 -48q-6 -14 -6 -28q2 -38 34 -56q12 -6 126 -36q54 -14 94 -30q-30 -12 -168 -50q-38 -10 -54 -20q-34 -20 -34 -52q0 -44 38 -68q16 -10 34 -10q34 0 108 80 q62 66 94 90q-4 -32 -42 -176q-10 -36 -10 -54q0 -54 56 -62q8 -2 14 -2q62 0 70 54q2 6 2 12q0 16 -32 126q-16 58 -22 102q28 -18 112 -108q62 -62 94 -62q42 0 62 48q6 14 6 28q-2 38 -34 56q-12 6 -126 36q-54 14 -94 30q30 12 168 50q38 10 54 20q34 20 34 52 q0 44 -38 68q-16 10 -34 10q-36 0 -104 -74q-64 -70 -98 -96q4 32 42 176q10 36 10 54q0 54 -56 62q-8 2 -14 2z" />
<glyph unicode="+" horiz-adv-x="938" d="M848 432v72h-334v356h-90v-356h-334v-72h334v-356h90v356h334z" />
<glyph unicode="," horiz-adv-x="386" d="M306 74q0 108 -80 128q-16 4 -30 4q-64 0 -88 -60q-8 -20 -8 -40q0 -64 64 -88q10 -2 16 -4q44 -12 46 -34q-2 -54 -88 -144l42 -30q122 132 126 268z" />
<glyph unicode="-" horiz-adv-x="760" d="M100 400h560v80h-560v-80z" />
<glyph unicode="." horiz-adv-x="404" d="M304 92q0 66 -60 94q-20 10 -42 10q-66 0 -92 -60q-10 -22 -10 -44q0 -64 58 -92q22 -10 44 -10q64 0 92 58q10 22 10 44z" />
<glyph unicode="/" horiz-adv-x="822" d="M120 -310l682 1730h-120l-682 -1730h120z" />
<glyph unicode="0" horiz-adv-x="1046" d="M530 1080q-214 0 -338 -174q-102 -146 -102 -368q0 -338 194 -482q104 -76 238 -76q214 0 336 180q100 148 100 372q0 356 -210 488q-96 60 -218 60zM528 32q-180 0 -234 218q-28 112 -28 282q0 414 172 480q40 16 88 16q158 0 214 -158q40 -116 40 -332 q0 -448 -192 -498q-28 -8 -60 -8z" />
<glyph unicode="1" horiz-adv-x="836" d="M442 1060l-402 -266l36 -58l312 200v-866l-274 -18v-52h692q0 44 -36 52q-8 2 -16 2l-206 16v990h-106z" />
<glyph unicode="2" horiz-adv-x="936" d="M160 140q0 58 144 150q26 16 82 52q224 134 306 224q102 110 102 228q0 186 -186 256q-82 30 -184 30q-184 0 -290 -98q-72 -68 -72 -160q0 -82 60 -102q14 -4 26 -4q78 0 96 80q4 20 8 60q12 108 52 142q36 30 102 30q178 0 212 -164q6 -32 6 -68q0 -186 -170 -322 q-18 -14 -180 -124q-152 -102 -192 -198q-22 -54 -22 -112v-40h762l4 336h-38l-32 -108q-22 -70 -78 -84q-24 -4 -66 -4h-452z" />
<glyph unicode="3" horiz-adv-x="996" d="M854 1020v40h-744l-4 -330h46l36 112q22 66 84 76q14 2 30 4l358 -2l-362 -418l44 -36q72 30 142 30q140 0 202 -136q34 -72 34 -164q0 -284 -258 -304q-20 -2 -40 -2q-108 0 -132 98q-6 20 -10 62q-12 96 -46 122q-24 16 -62 16q-72 0 -88 -68q-4 -16 -4 -30 q0 -134 150 -206q96 -44 220 -44q238 0 362 164q76 100 76 220q0 158 -114 254q-94 78 -228 78q-64 0 -136 -16z" />
<glyph unicode="4" horiz-adv-x="992" d="M912 -140q0 48 -26 52q-10 2 -22 2h-136v258h184v60h-184v392h-40l-20 -76q-16 -66 -46 -76q-14 -6 -34 -6h-12v-232l-468 2q626 518 628 750q-4 92 -90 94q-64 0 -100 -76q-12 -24 -34 -86q-84 -230 -204 -388q-116 -152 -288 -294l12 -60l544 -2v-260h-214v-54h550z " />
<glyph unicode="5" horiz-adv-x="952" d="M882 230q0 180 -130 286q-104 84 -254 84q-150 -2 -260 -76v386q160 -16 270 -16q206 0 260 54q46 46 46 192h-48q-16 -66 -76 -82q-48 -14 -156 -14q-16 0 -362 14v-554l66 -50q94 76 214 76q194 0 248 -190q16 -56 16 -122q0 -222 -148 -298q-60 -30 -138 -30 q-108 0 -130 96q-6 20 -10 64q-10 96 -44 122q-24 16 -62 16q-84 -16 -94 -98q0 -112 116 -188q100 -62 238 -62q254 0 374 176q64 96 64 214z" />
<glyph unicode="6" horiz-adv-x="1012" d="M924 368q0 216 -170 318q-96 56 -214 56q-146 -2 -258 -86q20 346 120 450q62 62 158 62q118 0 144 -90q4 -18 10 -54q10 -80 44 -100q22 -12 52 -12q80 0 94 76q2 12 2 24q0 110 -132 170q-86 38 -194 38q-274 0 -400 -258q-80 -164 -80 -394q0 -386 200 -524 q90 -64 218 -64q202 0 318 136q88 104 88 252zM270 348q0 250 156 318q44 18 92 18q154 0 210 -150q24 -68 24 -158q0 -298 -184 -338q-26 -6 -54 -6q-164 0 -222 166q-22 68 -22 150z" />
<glyph unicode="7" horiz-adv-x="892" d="M912 1020v40h-858l-4 -352h44l36 112q26 80 100 90q22 4 56 4h486q-398 -586 -474 -716q-104 -178 -104 -262q16 -88 98 -96q72 0 100 60q8 16 58 190q124 430 462 930z" />
<glyph unicode="8" horiz-adv-x="1076" d="M510 -20q212 0 340 118q96 90 96 210q0 152 -172 266q-40 26 -96 58q172 86 196 254q4 22 4 44q0 176 -164 252q-82 38 -178 38q-206 0 -310 -126q-64 -78 -64 -186q0 -150 188 -266l48 -28q-212 -58 -264 -232q-14 -44 -14 -88q0 -188 178 -272q92 -42 212 -42zM318 980 q0 132 138 172q44 12 96 12q134 0 210 -94q48 -62 48 -142q0 -138 -116 -224q-34 -26 -72 -42q-184 96 -242 162q-62 72 -62 156zM188 298q0 130 118 214q68 48 158 66q186 -96 244 -150q82 -74 82 -168q0 -158 -168 -208q-58 -16 -126 -16q-166 0 -254 106q-54 66 -54 156z " />
<glyph unicode="9" horiz-adv-x="1020" d="M920 490q0 360 -188 510q-102 80 -244 80q-214 0 -326 -146q-72 -96 -72 -222q0 -208 164 -304q92 -54 206 -54q162 2 280 100q-14 -560 -292 -562q-114 0 -138 88q-4 16 -8 52q-10 80 -42 100q-24 14 -58 14q-78 0 -92 -72q-2 -12 -2 -24q0 -110 124 -170 q84 -40 192 -40q342 0 452 336q44 138 44 314zM260 738q0 268 198 288q16 2 30 2q178 0 230 -182q16 -60 16 -130q0 -246 -176 -294q-34 -8 -74 -8q-222 4 -224 324z" />
<glyph unicode=":" horiz-adv-x="416" d="M306 666q0 64 -58 90q-20 8 -40 8q-64 0 -90 -58q-8 -20 -8 -40q0 -64 58 -92q20 -8 40 -8q64 0 90 60q8 20 8 40zM306 206q0 64 -58 92q-20 8 -40 8q-64 0 -90 -60q-8 -20 -8 -40q0 -64 58 -90q20 -8 40 -8q64 0 90 58q8 20 8 40z" />
<glyph unicode=";" horiz-adv-x="386" d="M296 564q0 64 -58 90q-20 8 -40 8q-64 0 -90 -58q-8 -20 -8 -40q0 -64 58 -90q20 -8 40 -8q64 0 90 58q8 20 8 40zM306 108q0 108 -80 128q-16 4 -30 4q-64 0 -88 -60q-8 -20 -8 -40q0 -64 64 -88q10 -2 16 -4q44 -12 46 -34q-2 -54 -88 -144l42 -30q122 132 126 268z " />
<glyph unicode="&#x3c;" horiz-adv-x="924" d="M806 154l28 64l-632 254l632 256l-24 58l-720 -288v-56z" />
<glyph unicode="=" horiz-adv-x="938" d="M848 542v72h-758v-72h758zM848 322v72h-758v-72h758z" />
<glyph unicode="&#x3e;" horiz-adv-x="924" d="M118 786l-28 -64l632 -254l-632 -256l24 -58l720 288v56z" />
<glyph unicode="?" horiz-adv-x="914" d="M446 334q0 170 136 306q22 22 68 62q110 98 138 158q22 48 22 100q0 186 -198 242q-68 18 -148 18q-190 0 -288 -92q-54 -52 -56 -116q4 -104 98 -106q74 0 90 72q4 16 8 48q10 94 46 120q32 22 84 22q158 0 170 -136q2 -16 2 -32q0 -122 -84 -256q-86 -134 -106 -184 q-42 -104 -42 -226h60zM518 92q0 66 -60 94q-20 10 -42 10q-66 0 -92 -60q-10 -22 -10 -44q0 -64 58 -92q22 -10 44 -10q64 0 92 58q10 22 10 44z" />
<glyph unicode="@" horiz-adv-x="1782" d="M1332 -236l-24 50q-174 -84 -352 -84q-284 0 -476 194q-200 200 -200 510q0 302 172 492q170 184 446 184q250 0 422 -174q192 -196 192 -526q0 -240 -132 -316q-40 -24 -84 -24q-102 4 -104 122v364q-4 272 -298 274q-208 0 -276 -98q-18 -30 -18 -58q12 -60 70 -68 q64 0 82 60q2 8 6 22q16 68 54 84q26 12 62 12q166 -4 168 -186v-114q-372 -2 -458 -132q-34 -50 -34 -122q0 -152 138 -196q42 -12 88 -12q134 0 222 96q28 30 42 64q18 -114 148 -150q42 -12 90 -12q168 0 272 126q92 110 92 284q0 392 -272 594q-192 142 -454 142 q-420 0 -636 -294q-150 -206 -150 -488q0 -334 242 -540q220 -186 528 -186q226 0 432 106zM836 94q-88 0 -118 92q-12 36 -12 76q0 148 244 168q44 4 92 4v-140q-30 -130 -132 -182q-38 -18 -74 -18z" />
<glyph unicode="A" horiz-adv-x="1226" d="M1226 0q0 44 -32 50q-10 2 -20 2h-68l-458 1148h-74l-448 -1148h-126v-52h356q0 44 -32 50q-10 2 -20 2h-98l150 388h418l150 -388h-130v-52h432zM752 498h-374l186 484z" />
<glyph unicode="B" horiz-adv-x="1178" d="M1012 928q0 152 -144 226q-94 46 -226 46h-562v-52h160v-1096h-160v-52h568q258 0 378 164q62 86 62 188q0 160 -142 248q-66 38 -152 54q144 54 198 182q20 48 20 92zM594 1148q206 0 234 -182q4 -26 4 -54q0 -130 -102 -196q-60 -38 -140 -38h-178v470h182zM628 624 q182 0 244 -154q24 -56 24 -122q0 -154 -100 -240q-66 -56 -158 -56h-226v572h216z" />
<glyph unicode="C" horiz-adv-x="1248" d="M1096 92q0 -84 24 -96q14 -6 38 -6v378h-48q-102 -330 -408 -332q-260 0 -354 262q-46 128 -46 302q0 374 206 508q90 56 200 56q250 0 362 -236q20 -42 34 -86h48l-6 368q-44 0 -54 -28q-6 -24 -6 -78q-58 58 -198 94q-92 22 -188 22q-316 0 -484 -234 q-116 -166 -116 -382q0 -262 162 -440q172 -184 448 -184q202 2 386 112z" />
<glyph unicode="D" horiz-adv-x="1358" d="M80 1200v-52h160v-1096h-160v-52h552q270 0 444 168q172 166 172 432q0 344 -252 504q-154 96 -358 96h-558zM632 1148q316 0 394 -288q30 -106 30 -252q0 -498 -340 -550q-38 -6 -78 -6h-226v1096h220z" />
<glyph unicode="E" horiz-adv-x="1112" d="M1012 840l-10 360h-922v-52h160v-1096h-160v-52h922l10 360h-40l-28 -94q-50 -170 -148 -204q-30 -10 -64 -10h-320v538h412v58h-412v500h320q144 0 206 -194q4 -12 6 -20l28 -94h40z" />
<glyph unicode="F" horiz-adv-x="1032" d="M652 0v52h-240v538h412v58h-412v500h320q144 0 206 -194q4 -12 6 -20l28 -94h40l-10 360h-922v-52h160v-1096h-160v-52h572z" />
<glyph unicode="G" horiz-adv-x="1388" d="M830 540v-52h180v-312q-100 -120 -268 -134q-16 -2 -32 -2q-398 4 -400 560q0 476 288 552q50 12 106 12q206 0 298 -114q60 -78 108 -244h52l-10 388l-174 -36q-126 62 -268 62q-240 0 -412 -158q-188 -174 -188 -454q0 -320 228 -500q166 -128 372 -128q150 0 272 66 q16 8 26 16l170 -62v488h150v52h-498z" />
<glyph unicode="H" horiz-adv-x="1436" d="M570 0q0 44 -32 50q-10 2 -20 2h-106v538h614v-538h-160v-52h490q0 44 -32 50q-10 2 -20 2h-106v1096h158v52h-490v-52h160v-500h-614v500h158v52h-490v-52h160v-1096h-160v-52h490z" />
<glyph unicode="I" horiz-adv-x="650" d="M570 0q0 44 -32 50q-10 2 -20 2h-106v1096h158v52h-490v-52h160v-1096h-160v-52h490z" />
<glyph unicode="J" horiz-adv-x="730" d="M660 1148v52h-512v-52h180v-824q0 -246 -62 -294q-24 -16 -54 -16q-54 0 -72 62q-22 70 -30 82q-24 32 -72 32q-62 0 -82 -58q-6 -16 -6 -30q0 -80 104 -118q56 -20 124 -20q172 0 260 136q62 98 62 244v804h160z" />
<glyph unicode="K" horiz-adv-x="1268" d="M570 0q0 44 -32 50q-10 2 -20 2h-106v466l104 98l474 -616h278q0 44 -32 50q-10 2 -20 2h-54l-522 680l356 332q74 70 112 80q18 4 38 4q44 0 50 32q2 10 2 20h-360v-52h160l-586 -540v540h158v52h-490v-52h160v-1096h-160v-52h490z" />
<glyph unicode="L" horiz-adv-x="986" d="M956 0l10 400h-40l-34 -134q-48 -184 -160 -210q-24 -4 -46 -4h-274v1096h168v52h-500v-52h160v-1096h-160v-52h876z" />
<glyph unicode="M" horiz-adv-x="1622" d="M1562 1200h-320l-432 -978l-464 978h-286v-52h160v-1096h-160v-52h400q0 44 -32 50q-10 2 -20 2h-108v860l438 -922h42l462 1030v-968h-160v-52h480q0 44 -32 50q-10 2 -20 2h-108v1096h160v52z" />
<glyph unicode="N" horiz-adv-x="1338" d="M908 1148h170v-896l-760 948h-278v-52h160v-1096h-160v-52h410q0 44 -32 50q-10 2 -20 2h-118v926l786 -988l92 20v1138h160v52h-410v-52z" />
<glyph unicode="O" horiz-adv-x="1410" d="M710 1220q-240 0 -412 -158q-188 -174 -188 -454q0 -324 222 -500q162 -128 372 -128q236 0 406 160q190 178 190 460q0 330 -230 502q-156 118 -360 118zM710 36q-290 0 -372 310q-28 110 -28 254q0 476 288 552q50 12 106 12q394 -4 396 -556q0 -436 -242 -542 q-68 -30 -148 -30z" />
<glyph unicode="P" horiz-adv-x="1124" d="M630 1148q178 0 230 -160q16 -52 16 -112q0 -260 -232 -286q-24 -2 -48 -2h-184v560h218zM612 0q0 44 -32 50q-10 2 -20 2h-148v478h176q328 0 434 186q42 70 42 162q0 198 -172 278q-92 44 -220 44h-592v-52h160v-1096h-160v-52h532z" />
<glyph unicode="Q" horiz-adv-x="1414" d="M714 1220q-242 0 -414 -160q-186 -174 -186 -458q0 -312 218 -490q164 -132 376 -132q78 0 162 22q92 -156 134 -200q78 -80 166 -82q162 4 264 232l-42 24q-106 -124 -198 -126q-82 0 -184 126q-14 18 -46 60q224 104 304 342q36 106 36 228q0 320 -224 492 q-160 122 -366 122zM684 238q-114 -2 -202 -128q-168 136 -168 492q0 482 300 552q48 10 98 10q322 0 380 -378q12 -82 12 -176q-2 -384 -188 -514q-118 140 -232 142zM708 36q-102 0 -180 42q76 88 150 90q80 -2 156 -112q-56 -20 -126 -20z" />
<glyph unicode="R" horiz-adv-x="1224" d="M570 0v52h-158v498h190l320 -550h302q0 44 -24 50q-10 2 -24 2h-76l-322 516q190 46 260 198q26 60 26 122q0 150 -130 240q-106 72 -262 72h-592v-52h160v-1096h-160v-52h490zM612 1148q172 0 238 -140q26 -58 26 -122q0 -144 -100 -224q-68 -54 -158 -54h-206v540h200z " />
<glyph unicode="S" horiz-adv-x="1072" d="M972 314q0 178 -192 286q-38 20 -234 106q-178 76 -224 156q-24 44 -24 94q0 134 130 186q56 22 124 22q168 0 256 -114q58 -78 56 -190h60v350q-48 0 -56 -30q-4 -14 -4 -38q-142 78 -320 78q-216 0 -336 -120q-80 -84 -80 -196q0 -168 188 -274q34 -18 228 -102 q180 -80 228 -162q26 -46 26 -100q0 -140 -136 -202q-64 -28 -142 -28q-306 4 -340 374h-60v-414q48 0 56 28q4 16 4 58q154 -102 350 -102q230 0 356 124q86 88 86 210z" />
<glyph unicode="T" horiz-adv-x="1148" d="M844 0q0 44 -32 50q-10 2 -20 2h-136v1096h116q162 0 216 -196q0 -8 2 -12l32 -134h56l-10 394h-988l-10 -394h56l32 134q64 196 218 208h108v-1096h-190v-52h550z" />
<glyph unicode="U" horiz-adv-x="1264" d="M20 1148h160v-698q4 -468 466 -470q352 0 426 288q22 88 22 200v680h160v52h-390v-52h160v-692q0 -388 -288 -418q-24 -2 -48 -2q-244 0 -308 206q-28 90 -28 220v686h158v52h-490v-52z" />
<glyph unicode="V" horiz-adv-x="1154" d="M642 -10l412 1158h100v52h-336v-52h160l-334 -944l-362 944h160v52h-452v-52h120l380 -1010q44 -118 76 -136q20 -12 52 -12h24z" />
<glyph unicode="W" horiz-adv-x="1662" d="M1166 0l396 1148h100v52h-324v-52h160l-314 -944l-322 944h162v52h-344l136 -384l-210 -608l-338 940h162v52h-440v-52h118l368 -1028q40 -114 72 -126q12 -4 24 -4h16l260 734l214 -604q36 -102 58 -114q12 -6 30 -6h16z" />
<glyph unicode="X" horiz-adv-x="1210" d="M390 0v52h-160l342 472l318 -472h-146v-52h466q0 44 -32 50q-10 2 -20 2h-64l-412 610l310 430q38 52 86 56h22q44 0 50 32q2 10 2 20h-348v-52h160l-314 -438l-296 438h144v52h-468v-52h124l384 -572l-342 -468q-42 -56 -124 -56q-44 0 -50 -32q-2 -10 -2 -20h370z" />
<glyph unicode="Y" horiz-adv-x="1108" d="M806 0q0 44 -32 50q-10 2 -20 2h-108v446l302 594q46 54 108 56q44 0 50 32q2 10 2 20h-356v-52h160l-304 -582l-318 582h152v52h-452v-52h110l376 -670v-426h-160v-52h490z" />
<glyph unicode="Z" horiz-adv-x="1100" d="M1036 0l4 414h-44l-42 -192q-42 -168 -196 -170h-494l766 1106v42h-890l-18 -362h40l78 180q60 128 162 130h436l-788 -1108v-40h986z" />
<glyph unicode="[" horiz-adv-x="700" d="M660 -272h-480v1562h480v-56h-322v-1446l322 -4v-56z" />
<glyph unicode="\" horiz-adv-x="814" d="M644 -310l-682 1730h120l682 -1730h-120z" />
<glyph unicode="]" horiz-adv-x="726" d="M66 -272h480v1562h-480v-56h322v-1446l-322 -4v-56z" />
<glyph unicode="^" horiz-adv-x="1116" d="M180 664l56 -36l322 522l322 -522l56 36l-360 584h-36z" />
<glyph unicode="_" horiz-adv-x="960" d="M20 -130h920v80h-920v-80z" />
<glyph unicode="`" d="M676 1000q-52 56 -152 214q-34 52 -52 72q-28 26 -58 26q-54 0 -82 -52q-10 -18 -10 -38q2 -30 26 -56q20 -20 162 -106q82 -52 136 -94z" />
<glyph unicode="a" horiz-adv-x="964" d="M782 -20q154 0 170 186q2 12 2 22l-52 2q-14 -146 -78 -148q-52 4 -54 104v422q0 286 -286 302h-36q-224 0 -300 -104q-24 -34 -24 -68q0 -62 58 -72q10 -2 20 -2q46 0 68 58q28 74 38 88q38 50 118 50q188 -12 194 -206v-126q-470 0 -538 -196q-12 -38 -12 -82 q0 -152 134 -208q54 -22 114 -22q146 0 246 100q36 38 54 80q24 -178 164 -180zM384 60q-122 0 -150 122q-6 28 -6 62q0 134 154 170q82 18 238 20v-160q-30 -138 -146 -194q-46 -20 -90 -20z" />
<glyph unicode="b" horiz-adv-x="1100" d="M612 -20q176 0 296 132q112 128 112 324q0 220 -120 344q-90 90 -222 90q-218 0 -310 -196q-10 -18 -16 -36v662h-300v-50h150v-1080q0 -92 -52 -110q-30 -10 -98 -10v-50h252l18 132q86 -138 260 -150q16 -2 30 -2zM616 790q164 0 214 -200q20 -74 20 -168 q0 -282 -152 -366q-48 -26 -106 -26q-150 0 -212 160q-30 84 -30 194q0 242 120 350q64 56 146 56z" />
<glyph unicode="c" horiz-adv-x="870" d="M80 416q0 -242 178 -362q110 -74 250 -74q208 0 314 146q24 34 38 68l-52 18q-74 -158 -244 -174q-16 -2 -32 -2q-142 0 -222 142q-60 108 -60 256q0 262 138 350q58 36 128 36q108 0 130 -84q4 -16 10 -50q12 -80 44 -100q20 -10 44 -12q68 -4 86 56q4 14 4 26 q0 102 -130 168q-92 46 -200 46q-268 0 -374 -218q-50 -104 -50 -236z" />
<glyph unicode="d" horiz-adv-x="1096" d="M762 0h286q0 44 -30 48q-8 2 -20 2h-100l-4 1250h-340v-50h190v-488q-98 108 -264 108q-220 0 -332 -196q-68 -120 -68 -270q0 -248 156 -362q88 -62 194 -62q218 4 316 232zM250 428q0 282 152 366q48 26 106 26q146 0 208 -156q34 -84 34 -198q0 -240 -120 -348 q-64 -58 -146 -58q-164 0 -214 200q-20 74 -20 168z" />
<glyph unicode="e" horiz-adv-x="928" d="M498 820q140 0 186 -118q16 -38 16 -82q0 -100 -96 -122q-50 -10 -142 -8l-212 6q10 230 150 300q46 24 98 24zM846 192l-50 18q-70 -152 -226 -172q-20 -2 -38 -2q-210 0 -264 250q-16 70 -18 154l240 -4q244 -4 314 46q54 40 54 114q0 136 -138 216q-98 58 -226 58 q-250 0 -358 -208q-56 -108 -56 -244q0 -248 178 -368q106 -70 242 -70q216 0 318 156q16 28 28 56z" />
<glyph unicode="f" horiz-adv-x="608" d="M502 50h-140v750h230v50h-230v12q0 342 102 388q22 10 48 10q62 0 104 -74q36 -64 52 -76t36 -12q66 0 78 56q2 10 2 18q0 74 -100 116q-58 22 -130 22q-188 0 -280 -156q-62 -108 -62 -272v-32h-140v-50h140v-630q0 -92 -52 -110q-30 -10 -98 -10v-50h490q0 44 -30 48 q-8 2 -20 2z" />
<glyph unicode="g" horiz-adv-x="962" d="M260 554q4 264 200 266q196 -4 198 -266q-4 -272 -198 -274q-198 4 -200 274zM462 870q-180 0 -286 -116q-76 -86 -76 -202q0 -152 148 -252q14 -10 28 -18q-128 0 -160 -110q-6 -26 -6 -52q2 -106 86 -158q-66 -70 -66 -142q0 -110 130 -164q82 -36 202 -36 q304 0 402 148q32 50 32 106q0 172 -198 198q-26 4 -54 4l-364 8q-92 6 -94 80q0 52 66 66q14 2 30 2l176 -2q178 0 284 120q76 86 76 204q-2 150 -116 240q18 64 68 76q8 2 16 2q28 0 60 -30q22 -20 40 -20q50 12 58 64q0 62 -58 84q-22 8 -44 8q-94 0 -152 -84 q-22 -32 -34 -70q-90 46 -194 46zM462 -328q-198 0 -250 104q-14 28 -14 56q2 54 48 108q40 -8 66 -8l308 -4q150 -2 174 -68q6 -16 6 -40q0 -88 -164 -128q-80 -20 -174 -20z" />
<glyph unicode="h" horiz-adv-x="1142" d="M464 50h-100v432q0 182 126 264q52 34 108 34q122 0 170 -114q22 -54 22 -120v-376q0 -92 -44 -110q-28 -10 -96 -10v-50h440q0 44 -30 48q-8 2 -20 2h-100v496q0 218 -144 296q-56 28 -120 28q-148 0 -248 -108q-42 -46 -64 -104v642h-300v-50h150v-1080q0 -92 -52 -110 q-30 -10 -98 -10v-50h450q0 44 -30 48q-8 2 -20 2z" />
<glyph unicode="i" horiz-adv-x="580" d="M470 50h-100v800h-310v-50h160v-630q0 -92 -62 -112q-30 -8 -98 -8v-50h460q0 44 -30 48q-10 2 -20 2zM394 1142q0 70 -62 100q-24 10 -46 10q-70 0 -100 -64q-10 -22 -10 -46q0 -74 66 -102q22 -8 44 -8q70 0 98 64q10 22 10 46z" />
<glyph unicode="j" horiz-adv-x="532" d="M396 1142q0 70 -62 100q-24 10 -46 10q-70 0 -100 -64q-10 -22 -10 -46q0 -74 66 -102q22 -8 44 -8q70 0 98 64q10 22 10 46zM66 850v-50h160v-936q-6 -192 -82 -194q-40 0 -54 54q-18 64 -34 78q-18 12 -40 12q-60 0 -74 -54q-2 -10 -2 -18q0 -70 86 -106q40 -16 82 -16 q138 0 214 124q54 92 54 230v876h-310z" />
<glyph unicode="k" d="M452 50h-90v296l110 102l282 -448h266q0 44 -30 48q-8 2 -20 2h-72l-322 496l188 176q70 66 106 74q16 4 36 4q44 0 48 30q2 10 2 20h-340v-50h150l-404 -374v874h-300v-50h150v-1080q0 -92 -52 -110q-30 -10 -98 -10v-50h440q0 44 -30 48q-8 2 -20 2z" />
<glyph unicode="l" horiz-adv-x="578" d="M474 50h-108v1250h-300v-50h150v-1080q0 -92 -52 -110q-30 -10 -98 -10v-50h458q0 44 -30 48q-8 2 -20 2z" />
<glyph unicode="m" horiz-adv-x="1632" d="M450 50h-90v432q6 176 122 262q54 40 108 40q100 0 138 -110q16 -48 16 -108v-396q0 -92 -44 -110q-28 -10 -96 -10v-50h430q0 44 -30 48q-8 2 -20 2h-90v496v16q32 146 142 204q42 20 80 20q102 0 144 -106q20 -50 20 -114v-396q0 -92 -44 -110q-28 -10 -96 -10v-50h442 q0 44 -30 48q-8 2 -20 2h-102v496q0 206 -134 288q-60 36 -130 36q-152 0 -244 -142q-24 -36 -40 -76q-36 158 -158 204q-36 14 -74 14q-144 0 -238 -122q-34 -44 -54 -98l-8 200h-290v-50h150v-630q0 -92 -52 -110q-30 -10 -98 -10v-50h440q0 42 -30 48q-10 2 -20 2z" />
<glyph unicode="n" horiz-adv-x="1136" d="M450 50h-90v432q6 186 132 268q54 34 110 34q122 0 166 -114q18 -46 18 -104v-396q0 -92 -52 -110q-30 -10 -98 -10v-50h450q0 44 -30 48q-8 2 -20 2h-100v496q0 200 -138 286q-64 38 -138 38q-148 0 -244 -118q-36 -46 -58 -102l-8 200h-290v-50h150v-630 q0 -92 -52 -110q-30 -10 -98 -10v-50h440q0 44 -30 48q-8 2 -20 2z" />
<glyph unicode="o" horiz-adv-x="1026" d="M250 426q0 310 170 378q44 16 92 16q222 0 258 -280q6 -48 6 -106q0 -336 -184 -394q-36 -10 -74 -10q-202 0 -254 240q-14 70 -14 156zM518 870q-192 0 -320 -132q-118 -122 -118 -304q0 -252 184 -378q112 -76 248 -76q192 0 318 136q116 124 116 310q0 252 -186 374 q-110 70 -242 70z" />
<glyph unicode="p" horiz-adv-x="1100" d="M352 -330v414q110 -96 254 -104q178 0 298 134q116 130 116 330q0 228 -126 346q-88 80 -214 80q-194 0 -290 -154q-24 -40 -40 -84l-10 218h-288v-50h150v-1010q0 -92 -52 -110q-30 -10 -98 -10v-50h490q0 44 -30 48q-8 2 -20 2h-140zM616 790q174 0 220 -218 q14 -66 14 -148q0 -294 -158 -372q-46 -22 -100 -22q-154 0 -212 162q-30 82 -30 194q0 260 134 360q60 44 132 44z" />
<glyph unicode="q" horiz-adv-x="1100" d="M80 390q0 -248 164 -356q82 -54 184 -54q176 0 280 142q24 36 42 74l-2 -406q0 -88 -58 -108q-38 -12 -132 -12v-50h492q0 44 -30 48q-8 2 -20 2h-102v1130h150v50h-280l-10 -86q-110 106 -274 106q-186 0 -302 -144q-102 -130 -102 -336zM750 464q0 -278 -144 -370 q-54 -34 -118 -34q-174 0 -222 210q-16 68 -16 156q0 286 152 368q48 26 108 26q188 0 230 -228q10 -58 10 -128z" />
<glyph unicode="r" horiz-adv-x="786" d="M508 50h-144v398q0 182 112 292q44 42 74 44q34 0 62 -50q32 -56 60 -64q12 -4 24 -4q60 0 76 58q4 12 4 24q0 90 -92 110q-20 4 -38 4q-120 0 -214 -102q-44 -48 -70 -108l-8 198h-290v-50h150v-630q0 -92 -52 -110q-30 -10 -98 -10v-50h494q0 44 -30 48q-8 2 -20 2z " />
<glyph unicode="s" horiz-adv-x="800" d="M380 34q138 0 186 84q18 30 18 66q0 84 -122 144q-26 14 -86 40q-164 68 -218 128q-58 66 -58 154q0 138 152 194q70 26 152 26q132 0 228 -56q0 58 28 66q12 2 26 2v-250h-52q-4 184 -204 186q-150 0 -186 -88q-10 -24 -10 -50q0 -86 124 -146q28 -14 88 -38 q162 -66 216 -126q58 -64 58 -152q0 -162 -172 -216q-66 -22 -144 -22q-144 2 -250 72q0 -52 -26 -60q-12 -2 -28 -2v304h56q4 -258 224 -260z" />
<glyph unicode="t" horiz-adv-x="650" d="M40 800h140v-564q14 -250 230 -258q184 0 230 226v4l-54 10q-50 -166 -146 -180q-108 4 -110 154v608h310v50h-310v232l-150 -42v-190h-140v-50z" />
<glyph unicode="u" horiz-adv-x="1134" d="M1030 50h-100v800h-314v-50h164v-432q0 -180 -126 -264q-56 -38 -116 -38q-164 0 -190 168q-4 28 -4 60v556h-304v-50h154v-476q2 -342 286 -344q150 0 246 122q36 46 58 102l14 -204h282q0 44 -30 48q-8 2 -20 2z" />
<glyph unicode="v" horiz-adv-x="928" d="M394 800v50h-388v-50h90l244 -670q40 -112 88 -130q24 -10 60 -10h26l282 740q24 62 58 68q10 2 18 2q44 0 48 30q2 10 2 20h-308v-50h150l-254 -682l-256 682h140z" />
<glyph unicode="w" horiz-adv-x="1368" d="M408 800v50h-396v-50h90l250 -670q42 -114 86 -132q22 -8 54 -8h40l174 524l134 -384q38 -112 78 -132q20 -8 54 -8h32l242 738q20 62 48 70q10 2 22 2q44 0 50 28q2 10 2 22h-296v-50h140l-222 -690l-234 690h140v50h-308l90 -254l-166 -492l-254 696h150z" />
<glyph unicode="x" horiz-adv-x="868" d="M2 0h310v50h-150l238 314l218 -314h-122v-50h372q0 44 -30 48q-8 2 -20 2h-38l-276 404l206 286q38 54 100 62q32 2 38 22q2 10 2 26h-300v-50h140l-216 -300l-206 300h132v50h-400v-50h98l270 -390l-230 -300q-40 -52 -100 -60q-30 -4 -34 -24q-2 -12 -2 -26z" />
<glyph unicode="y" horiz-adv-x="968" d="M206 -318q-32 0 -48 48q-22 60 -42 74q-18 12 -42 12q-64 0 -74 -56q-2 -8 -2 -14q0 -76 88 -110q40 -16 84 -16q158 0 274 194q48 78 92 186l296 730q20 56 44 64q14 4 32 4q40 0 46 22q4 12 4 30h-304v-52h146l-256 -640l-274 640h134v52h-390v-52h98l360 -798 q-112 -264 -210 -306q-28 -12 -56 -12z" />
<glyph unicode="z" horiz-adv-x="844" d="M230 52l542 766v42h-676l-18 -260h30l48 110q44 96 128 98h322l-562 -764v-44h730l6 302h-28l-24 -110q-22 -110 -102 -134q-18 -6 -36 -6h-360z" />
<glyph unicode="{" horiz-adv-x="800" d="M462 296v-302q0 -134 62 -174q58 -36 236 -36v-56q-252 0 -330 32q-104 44 -116 192q-2 28 -2 56v298q0 110 -52 146q-34 22 -100 36v42q112 24 138 82q14 36 14 100v298q0 182 94 236q74 42 308 44h46v-56q-196 0 -250 -46q-48 -44 -48 -164v-302q0 -128 -96 -182 q-22 -12 -56 -26v-10q98 -42 128 -94q24 -46 24 -114z" />
<glyph unicode="|" horiz-adv-x="554" d="M220 -272v1572h114v-1572h-114z" />
<glyph unicode="}" horiz-adv-x="780" d="M338 718v302q0 134 -62 174q-58 36 -236 36v56q252 0 330 -32q104 -44 116 -192q2 -28 2 -56v-298q0 -110 52 -146q34 -22 100 -36v-42q-112 -24 -138 -82q-14 -36 -14 -100v-298q0 -182 -94 -236q-74 -42 -308 -44h-46v56q196 0 250 46q48 44 48 164v302q0 128 96 182 q22 12 56 26v10q-98 42 -128 94q-24 46 -24 114z" />
<glyph unicode="~" horiz-adv-x="990" d="M320 618q74 0 212 -74q118 -62 170 -62q106 2 160 136l48 -16q-38 -176 -166 -222q-32 -12 -64 -12q-74 0 -222 74q-122 60 -178 60q-100 -4 -152 -132l-48 16q50 190 190 226q26 6 50 6z" />
<glyph unicode="&#xa1;" horiz-adv-x="508" d="M180 526q0 -258 -50 -550q-26 -144 -26 -208q0 -118 86 -126q10 -2 18 -2q104 4 106 132q0 54 -34 264q-40 238 -40 490h-60zM110 768q0 -66 60 -94q20 -10 42 -10q66 0 92 60q10 22 10 44q0 64 -58 92q-22 10 -44 10q-64 0 -92 -58q-10 -22 -10 -44z" />
<glyph unicode="&#xa2;" horiz-adv-x="922" d="M80 546q0 -246 180 -364q92 -60 206 -70v-152h58v150q206 8 306 156q18 32 32 64l-52 12q-70 -152 -230 -174q-26 -4 -48 -4h-8v786q102 0 124 -82q4 -16 8 -50q10 -80 42 -100q20 -12 46 -14q68 -4 86 56q4 14 4 26q0 102 -130 168q-84 40 -180 46v140h-58v-142 q-248 -16 -342 -232q-44 -100 -44 -220zM250 564q0 262 138 350q36 24 78 32v-772q-128 38 -184 196q-32 88 -32 194z" />
<glyph unicode="&#xa3;" horiz-adv-x="1148" d="M1098 300h-42q-62 -140 -258 -146q-136 0 -346 62q20 84 20 182q0 68 -12 202h310v58h-316q-16 156 -16 224q0 268 180 284h24q116 0 150 -98q6 -18 14 -56q18 -88 52 -110q24 -14 58 -14q74 0 96 70q6 18 6 38q0 124 -156 186q-92 38 -200 38q-268 0 -372 -178 q-48 -84 -48 -192q0 -86 30 -192h-144v-58h162q62 -210 70 -258q10 -56 10 -104q-76 20 -116 20q-118 0 -148 -90q-6 -22 -6 -44q0 -76 70 -110q30 -14 64 -14q120 0 188 134q2 6 4 10q22 -12 68 -40q170 -102 266 -118q28 -4 54 -4q190 0 256 160q28 68 28 158zM232 56 q-54 0 -66 50q-2 8 -2 16q0 58 56 76q16 4 30 4q56 0 114 -28q-22 -90 -100 -112q-16 -6 -32 -6z" />
<glyph unicode="&#xa4;" horiz-adv-x="1206" d="M594 220q-156 0 -248 120q-68 90 -68 222q0 204 150 294q76 44 164 44q154 0 244 -118q70 -92 70 -222q0 -208 -154 -298q-72 -42 -158 -42zM590 154q156 2 266 96l172 -174l48 48l-174 176q84 108 84 264q-2 148 -78 252l172 172l-48 50l-170 -172q-108 98 -266 98 q-152 -2 -264 -94l-172 170l-48 -48l172 -170q-86 -110 -86 -264q2 -162 88 -266l-170 -170l50 -48l168 168q110 -88 256 -88z" />
<glyph unicode="&#xa5;" horiz-adv-x="1134" d="M822 0q0 46 -26 50q-12 2 -24 2h-106l4 388h272v58h-272l2 100h270v58h-248l260 436q26 42 54 50q24 6 64 6q38 14 42 52h-358v-52h162l-282 -472l-298 472h130v52h-428v-52h110l314 -492h-234v-58h272l-2 -100h-270v-58h270l-4 -388h-154v-52h480z" />
<glyph unicode="&#xa6;" horiz-adv-x="554" d="M334 630v670h-114v-670h114zM334 -272v670h-114v-670h114z" />
<glyph unicode="&#xa7;" horiz-adv-x="930" d="M246 646q4 88 106 124q38 -20 116 -56q160 -74 200 -122q26 -32 26 -68q-4 -88 -108 -128q-38 22 -116 58q-160 76 -198 124q-26 34 -26 68zM830 558q0 134 -170 226q-38 22 -122 60q-160 72 -202 120q-34 40 -34 86q0 78 78 116q40 20 88 20q120 0 148 -80q4 -12 10 -36 q14 -62 44 -74q18 -8 40 -8q62 4 64 78q0 96 -134 144q-72 24 -156 24q-184 0 -270 -102q-46 -56 -46 -132q2 -114 134 -202q-190 -44 -192 -188q0 -134 174 -232q40 -22 120 -60q158 -74 198 -122q28 -36 28 -74q0 -96 -88 -130q-34 -12 -74 -12q-118 0 -148 86 q-4 12 -10 36q-16 62 -44 74q-14 6 -30 6q-74 -6 -78 -78q0 -94 130 -144q74 -28 160 -28q184 0 270 100q48 56 48 132q-2 118 -132 204q182 56 196 190z" />
<glyph unicode="&#xa8;" d="M418 1142q0 66 -58 92q-20 8 -40 8q-68 0 -94 -60q-8 -20 -8 -40q0 -70 64 -94q18 -6 38 -6q66 0 90 62q8 18 8 38zM784 1142q0 66 -60 92q-20 8 -40 8q-66 0 -92 -60q-8 -20 -8 -40q0 -70 62 -94q20 -6 38 -6q68 0 92 62q8 18 8 38z" />
<glyph unicode="&#xa9;" horiz-adv-x="1322" d="M1232 550q0 252 -174 416q-160 152 -396 152q-270 0 -436 -190q-136 -158 -136 -378q0 -254 176 -418q162 -152 396 -152q266 0 430 188q140 160 140 382zM152 550q0 246 168 392q140 122 342 122q250 0 396 -180q114 -142 114 -334q0 -238 -164 -388 q-142 -128 -346 -128q-252 0 -398 182q-112 142 -112 334zM672 910q-198 0 -292 -166q-50 -88 -50 -196q0 -176 122 -276q90 -74 222 -74q180 0 262 134q10 16 16 30l-42 18q-64 -128 -206 -130q-130 0 -182 160q-22 70 -22 156q0 186 88 262q38 32 84 32q78 0 96 -68l6 -36 q12 -72 44 -88q22 -10 48 -10q70 8 76 66q0 102 -122 156q-68 30 -148 30z" />
<glyph unicode="&#xaa;" horiz-adv-x="622" d="M558 488v70h-504v-70h504zM226 724q-58 0 -66 72q-2 12 -2 22q0 94 150 106q24 2 46 2v-70q-30 -104 -100 -128q-14 -4 -28 -4zM582 790h-38q-8 -74 -40 -76q-30 4 -30 54v244q-4 186 -218 188q-134 0 -182 -70q-14 -22 -14 -46q4 -56 62 -58q52 0 66 50q14 56 22 66 q20 18 52 18q90 -4 92 -140v-54q-254 0 -306 -86q-18 -32 -18 -76q0 -104 96 -136q28 -8 58 -8q116 0 166 108q2 2 2 4q14 -94 98 -108q12 -2 24 -2q100 0 108 124v4z" />
<glyph unicode="&#xab;" horiz-adv-x="828" d="M438 756l-36 34q-38 -40 -272 -266q-38 -36 -54 -54q-26 -30 -26 -60q2 -36 26 -64q14 -16 222 -214q64 -60 104 -100l36 32q-30 40 -186 290q-22 34 -36 56q18 28 64 102q108 176 158 244zM778 756l-36 34q-38 -40 -272 -266q-38 -36 -54 -54q-26 -30 -26 -60 q2 -36 26 -64q14 -16 222 -214q64 -60 104 -100l36 32q-30 40 -186 290q-22 34 -36 56q18 28 64 102q108 176 158 244z" />
<glyph unicode="&#xac;" horiz-adv-x="984" d="M804 236h90v428h-804v-72h714v-356z" />
<glyph unicode="&#xad;" horiz-adv-x="760" d="M100 400h560v80h-560v-80z" />
<glyph unicode="&#xae;" horiz-adv-x="790" d="M740 946q0 172 -132 270q-94 68 -212 68q-182 0 -282 -136q-64 -88 -64 -202q0 -176 136 -274q92 -64 210 -64q180 0 280 134q64 90 64 204zM98 946q0 158 124 244q78 54 174 54q154 -2 240 -122q56 -78 56 -176q0 -160 -124 -246q-76 -52 -172 -52q-156 0 -242 120 q-56 78 -56 178zM610 752q-4 26 -24 28h-18l-96 152q90 28 92 110q0 70 -82 94q-30 10 -66 10l-204 2v-30h46v-338h-46v-30h186v30h-50v146h42l96 -178zM348 1118h50q52 0 64 -56q2 -10 2 -20q0 -66 -50 -80q-8 -2 -16 -2h-50v158z" />
<glyph unicode="&#xaf;" d="M200 1080h600v100h-600v-100z" />
<glyph unicode="&#xb0;" horiz-adv-x="596" d="M158 1084q0 90 74 132q32 18 66 18q80 0 120 -74q20 -36 20 -76q0 -86 -76 -124q-30 -16 -64 -16q-86 0 -124 74q-16 32 -16 66zM496 1084q0 108 -90 168q-50 34 -108 34q-106 0 -166 -92q-32 -52 -32 -110q0 -108 92 -164q50 -28 106 -28q110 0 168 90q30 48 30 102z " />
<glyph unicode="&#xb1;" horiz-adv-x="938" d="M848 512v72h-334v276h-90v-276h-334v-72h334v-276h90v276h334zM848 72v72h-758v-72h758z" />
<glyph unicode="&#xb2;" horiz-adv-x="678" d="M152 770q0 36 108 92q156 82 198 114q92 74 94 156q0 128 -148 166q-46 12 -98 12q-150 0 -216 -78q-30 -36 -30 -80q4 -66 68 -68q66 0 72 60q2 8 4 28q2 70 34 86q22 12 54 12q94 0 106 -82q4 -20 4 -44q0 -112 -118 -200q-18 -14 -56 -40q-110 -74 -142 -126 q-24 -44 -24 -94v-26h504l2 212h-24l-20 -50q-16 -42 -56 -48q-20 -2 -54 -2h-262z" />
<glyph unicode="&#xb3;" horiz-adv-x="726" d="M584 1272v26h-484l-4 -210h30l24 58q16 40 68 42h32h200l-218 -222l28 -24q42 20 86 20q122 -4 124 -150q-4 -198 -160 -200q-60 0 -72 64q-2 8 -4 28q-10 74 -42 88q-18 8 -38 8q-66 -12 -74 -70q0 -104 126 -140q48 -14 102 -14q152 0 244 90q64 64 64 152 q0 118 -120 164q-50 18 -110 18q-44 0 -78 -8z" />
<glyph unicode="&#xb4;" d="M736 1166q24 28 26 56q0 52 -54 80q-20 10 -38 10q-32 -2 -58 -26q-16 -16 -96 -142q-58 -90 -108 -144l32 -34q48 38 218 144q56 36 78 56z" />
<glyph unicode="&#xb5;" horiz-adv-x="1134" d="M342 -220q0 50 -32 308q68 -106 186 -108q140 0 240 140q28 40 48 84l14 -204h286q0 44 -24 50q-10 2 -24 2h-106v798h-314v-52h164v-430q-6 -186 -132 -268q-54 -34 -110 -34q-164 0 -190 168q-4 28 -4 60v556h-304v-52h154v-478q0 -112 -14 -390q-8 -130 -8 -154 q10 -112 84 -118q84 4 86 122z" />
<glyph unicode="&#xb6;" horiz-adv-x="1030" d="M442 -226q196 0 310 130q94 110 94 284l-4 960h158v52h-404q-320 0 -440 -196q-56 -92 -56 -204q0 -204 160 -306q104 -64 252 -64h30v-334q0 -228 -42 -260q-14 -10 -38 -10q-50 0 -68 64q-26 84 -28 88q-30 52 -94 54q-76 0 -96 -68q-4 -16 -4 -32q0 -84 118 -130 q68 -28 152 -28zM700 140q0 -222 -86 -280q-24 -16 -54 -24q38 52 38 280v1032h102v-1008z" />
<glyph unicode="&#xb7;" horiz-adv-x="614" d="M416 464q0 68 -62 98q-22 10 -46 10q-68 0 -98 -62q-10 -22 -10 -46q0 -68 62 -98q22 -10 46 -10q68 0 98 62q10 22 10 46z" />
<glyph unicode="&#xb8;" d="M330 -170l28 -18q48 34 102 34q94 0 108 -86q2 -14 2 -28q0 -104 -80 -130q-20 -6 -38 -6q-80 2 -140 80l-32 -24q68 -104 208 -106q132 0 198 84q34 44 34 98q0 108 -112 152q-46 16 -94 16q-58 0 -104 -20l58 130h-50z" />
<glyph unicode="&#xb9;" horiz-adv-x="574" d="M304 1298l-264 -186l30 -44l190 130v-486l-164 -14v-40h448q0 34 -28 40q-8 0 -16 2l-104 12v586h-92z" />
<glyph unicode="&#xba;" horiz-adv-x="596" d="M164 930q0 208 108 222q10 2 20 2q110 0 126 -144q4 -32 4 -76q0 -204 -96 -224q-16 -4 -30 -4q-122 0 -132 186v38zM296 1200q-138 0 -214 -102q-52 -70 -52 -164q0 -168 132 -242q62 -32 130 -32q134 0 210 102q54 72 54 168q0 170 -134 240q-60 30 -126 30zM42 488 h504v70h-504v-70z" />
<glyph unicode="&#xbb;" horiz-adv-x="828" d="M390 756l36 34q38 -40 272 -266q38 -36 54 -54q26 -30 26 -60q-2 -36 -26 -64q-14 -16 -222 -214q-64 -60 -104 -100l-36 32q30 40 186 290q22 34 36 56q-18 28 -64 102q-108 176 -158 244zM50 756l36 34q38 -40 272 -266q38 -36 54 -54q26 -30 26 -60q-2 -36 -26 -64 q-14 -16 -222 -214q-64 -60 -104 -100l-36 32q30 40 186 290q22 34 36 56q-18 28 -64 102q-108 176 -158 244z" />
<glyph unicode="&#xbc;" horiz-adv-x="1448" d="M338 -58l874 1278l-58 40l-876 -1280zM344 1218l-264 -186l30 -44l190 130v-486l-164 -14v-40h448q0 34 -28 40q-8 0 -16 2l-104 12v586h-92zM1350 -90q0 36 -22 40q-8 2 -18 2h-92v148h132v46h-132v250h-30l-14 -36q-22 -56 -56 -64q-12 -4 -24 -4h-10v-146l-292 2 q24 20 74 60q354 284 354 394q-4 66 -68 68q-48 0 -78 -58q-6 -14 -22 -46q-80 -180 -206 -310q-54 -56 -118 -108l10 -46l346 -2v-148h-146v-42h412z" />
<glyph unicode="&#xbd;" horiz-adv-x="1470" d="M338 -58l874 1278l-58 40l-876 -1280zM344 1218l-264 -186l30 -44l190 130v-486l-164 -14v-40h448q0 34 -28 40q-8 0 -16 2l-104 12v586h-92zM952 112q0 36 108 92q156 82 198 114q92 74 94 156q0 128 -148 166q-46 12 -98 12q-150 0 -216 -78q-30 -36 -30 -80 q4 -66 68 -68q66 0 72 60q2 8 4 28q2 70 34 86q22 12 54 12q94 0 106 -82q4 -20 4 -44q0 -112 -118 -200q-18 -14 -56 -40q-110 -74 -142 -126q-24 -44 -24 -94v-26h504l2 212h-24l-20 -50q-16 -42 -56 -48q-20 -2 -54 -2h-262z" />
<glyph unicode="&#xbe;" horiz-adv-x="1480" d="M584 1192v26h-484l-4 -210h30l24 58q16 40 68 42h32h200l-218 -222l28 -24q42 20 86 20q122 -4 124 -150q-4 -198 -160 -200q-60 0 -72 64q-2 8 -4 28q-10 74 -42 88q-18 8 -38 8q-66 -12 -74 -70q0 -104 126 -140q48 -14 102 -14q152 0 244 90q64 64 64 152 q0 118 -120 164q-50 18 -110 18q-44 0 -78 -8zM370 -58l874 1278l-58 40l-876 -1280zM1382 -90q0 36 -22 40q-8 2 -18 2h-92v148h132v46h-132v250h-30l-14 -36q-22 -56 -56 -64q-12 -4 -24 -4h-10v-146l-292 2q24 20 74 60q354 284 354 394q-4 66 -68 68q-48 0 -78 -58 q-6 -14 -22 -46q-80 -180 -206 -310q-54 -56 -118 -108l10 -46l346 -2v-148h-146v-42h412z" />
<glyph unicode="&#xbf;" horiz-adv-x="970" d="M450 526q0 -170 -136 -306q-22 -22 -68 -62q-110 -98 -138 -158q-22 -48 -22 -100q0 -186 198 -242q68 -18 148 -18q190 0 288 92q54 52 56 116q-4 104 -98 106q-74 0 -90 -72q-4 -16 -8 -48q-10 -94 -46 -120q-32 -22 -84 -22q-158 0 -170 136q-2 16 -2 32q0 122 84 256 q86 134 106 184q42 104 42 226h-60zM378 768q0 -66 60 -94q20 -10 42 -10q66 0 92 60q10 22 10 44q0 64 -58 92q-22 10 -44 10q-64 0 -92 -58q-10 -22 -10 -44z" />
<glyph unicode="&#xc0;" horiz-adv-x="1226" d="M1226 0q0 44 -32 50q-10 2 -20 2h-68l-458 1148h-74l-448 -1148h-126v-52h356q0 44 -32 50q-10 2 -20 2h-98l150 388h418l150 -388h-130v-52h432zM752 498h-374l186 484zM780 1260q-52 56 -152 214q-34 52 -52 72q-28 26 -58 26q-54 0 -82 -52q-10 -18 -10 -38 q2 -30 26 -56q20 -20 162 -106q82 -52 136 -94z" />
<glyph unicode="&#xc1;" horiz-adv-x="1226" d="M1226 0q0 44 -32 50q-10 2 -20 2h-68l-458 1148h-74l-448 -1148h-126v-52h356q0 44 -32 50q-10 2 -20 2h-98l150 388h418l150 -388h-130v-52h432zM752 498h-374l186 484zM790 1426q24 28 26 56q0 52 -54 80q-20 10 -38 10q-32 -2 -58 -26q-16 -16 -96 -142 q-58 -90 -108 -144l32 -34q48 38 218 144q56 36 78 56z" />
<glyph unicode="&#xc2;" horiz-adv-x="1226" d="M1226 0q0 44 -32 50q-10 2 -20 2h-68l-458 1148h-74l-448 -1148h-126v-52h356q0 44 -32 50q-10 2 -20 2h-98l150 388h418l150 -388h-130v-52h432zM752 498h-374l186 484zM852 1258l24 32q-46 50 -110 130q-80 98 -116 116q-20 10 -42 10q-52 0 -112 -72q-14 -16 -44 -54 q-64 -82 -108 -132l24 -28q114 74 244 140q152 -80 240 -142z" />
<glyph unicode="&#xc3;" horiz-adv-x="1226" d="M1226 0q0 44 -32 50q-10 2 -20 2h-68l-458 1148h-74l-448 -1148h-126v-52h356q0 44 -32 50q-10 2 -20 2h-98l150 388h418l150 -388h-130v-52h432zM752 498h-374l186 484zM512 1526q60 0 142 -64q70 -54 108 -54q74 0 104 102l4 12l42 -10q-46 -212 -180 -214 q-60 0 -140 64q-70 54 -112 54q-70 0 -100 -94q-4 -10 -6 -20l-40 10q46 212 178 214z" />
<glyph unicode="&#xc4;" horiz-adv-x="1226" d="M1226 0q0 44 -32 50q-10 2 -20 2h-68l-458 1148h-74l-448 -1148h-126v-52h356q0 44 -32 50q-10 2 -20 2h-98l150 388h418l150 -388h-130v-52h432zM752 498h-374l186 484zM528 1402q0 66 -58 92q-20 8 -40 8q-68 0 -94 -60q-8 -20 -8 -40q0 -70 64 -94q18 -6 38 -6 q66 0 90 62q8 18 8 38zM894 1402q0 66 -60 92q-20 8 -40 8q-66 0 -92 -60q-8 -20 -8 -40q0 -70 62 -94q20 -6 38 -6q68 0 92 62q8 18 8 38z" />
<glyph unicode="&#xc5;" horiz-adv-x="1226" d="M1226 0q0 44 -32 50q-10 2 -20 2h-68l-444 1114q124 18 162 122q10 32 10 64q0 114 -104 160q-46 18 -100 18q-150 0 -198 -104q-16 -36 -16 -76q0 -114 98 -164q24 -10 48 -16l-436 -1118h-126v-52h356q0 44 -32 50q-10 2 -20 2h-98l150 388h418l150 -388h-130v-52h432z M752 498h-374l186 484zM524 1346q0 108 68 132q16 6 32 6q86 0 100 -102q2 -16 2 -32q0 -102 -64 -132q-18 -8 -38 -8q-88 0 -98 110q-2 14 -2 26z" />
<glyph unicode="&#xc6;" horiz-adv-x="1740" d="M506 538l368 606v-606h-368zM372 0q0 46 -26 50q-10 2 -22 2h-114l260 428h404v-428h-166v-52h922l10 360h-40l-28 -94q-50 -170 -148 -204q-30 -10 -64 -10h-314v538h406v58h-406v500h314q144 0 206 -194q4 -12 6 -20l28 -94h40l-10 360h-806l-704 -1148h-120v-52h372z " />
<glyph unicode="&#xc7;" horiz-adv-x="1248" d="M1096 92q0 -84 24 -96q14 -6 38 -6v378h-48q-102 -330 -408 -332q-260 0 -354 262q-46 128 -46 302q0 374 206 508q90 56 200 56q250 0 362 -236q20 -42 34 -86h48l-6 368q-44 0 -54 -28q-6 -24 -6 -78q-58 58 -198 94q-92 22 -188 22q-316 0 -484 -234 q-116 -166 -116 -382q0 -264 162 -440q136 -146 342 -176l-78 -158l28 -18q48 34 102 34q94 0 108 -86q2 -14 2 -28q0 -104 -80 -130q-20 -6 -38 -6q-80 2 -140 80l-32 -24q68 -104 208 -106q132 0 198 84q34 44 34 98q0 108 -112 152q-46 16 -94 16q-58 0 -104 -20l48 106 q20 -2 56 -2q202 2 386 112z" />
<glyph unicode="&#xc8;" horiz-adv-x="1112" d="M1012 840l-10 360h-922v-52h160v-1096h-160v-52h922l10 360h-40l-28 -94q-50 -170 -148 -204q-30 -10 -64 -10h-320v538h412v58h-412v500h320q144 0 206 -194q4 -12 6 -20l28 -94h40zM754 1260q-52 56 -152 214q-34 52 -52 72q-28 26 -58 26q-54 0 -82 -52 q-10 -18 -10 -38q2 -30 26 -56q20 -20 162 -106q82 -52 136 -94z" />
<glyph unicode="&#xc9;" horiz-adv-x="1112" d="M1012 840l-10 360h-922v-52h160v-1096h-160v-52h922l10 360h-40l-28 -94q-50 -170 -148 -204q-30 -10 -64 -10h-320v538h412v58h-412v500h320q144 0 206 -194q4 -12 6 -20l28 -94h40zM764 1426q24 28 26 56q0 52 -54 80q-20 10 -38 10q-32 -2 -58 -26q-16 -16 -96 -142 q-58 -90 -108 -144l32 -34q48 38 218 144q56 36 78 56z" />
<glyph unicode="&#xca;" horiz-adv-x="1112" d="M1012 840l-10 360h-922v-52h160v-1096h-160v-52h922l10 360h-40l-28 -94q-50 -170 -148 -204q-30 -10 -64 -10h-320v538h412v58h-412v500h320q144 0 206 -194q4 -12 6 -20l28 -94h40zM826 1258l24 32q-46 50 -110 130q-80 98 -116 116q-20 10 -42 10q-52 0 -112 -72 q-14 -16 -44 -54q-64 -82 -108 -132l24 -28q114 74 244 140q152 -80 240 -142z" />
<glyph unicode="&#xcb;" horiz-adv-x="1112" d="M1012 840l-10 360h-922v-52h160v-1096h-160v-52h922l10 360h-40l-28 -94q-50 -170 -148 -204q-30 -10 -64 -10h-320v538h412v58h-412v500h320q144 0 206 -194q4 -12 6 -20l28 -94h40zM502 1402q0 66 -58 92q-20 8 -40 8q-68 0 -94 -60q-8 -20 -8 -40q0 -70 64 -94 q18 -6 38 -6q66 0 90 62q8 18 8 38zM868 1402q0 66 -60 92q-20 8 -40 8q-66 0 -92 -60q-8 -20 -8 -40q0 -70 62 -94q20 -6 38 -6q68 0 92 62q8 18 8 38z" />
<glyph unicode="&#xcc;" horiz-adv-x="650" d="M570 0q0 44 -32 50q-10 2 -20 2h-106v1096h158v52h-490v-52h160v-1096h-160v-52h490zM500 1260q-52 56 -152 214q-32 52 -52 72q-28 26 -58 26q-54 0 -82 -52q-10 -18 -10 -38q2 -30 26 -56q20 -20 162 -106q82 -52 136 -94z" />
<glyph unicode="&#xcd;" horiz-adv-x="650" d="M570 0q0 44 -32 50q-10 2 -20 2h-106v1096h158v52h-490v-52h160v-1096h-160v-52h490zM510 1426q24 28 26 56q0 52 -54 80q-20 10 -38 10q-32 -2 -58 -26q-16 -16 -96 -142q-58 -90 -108 -144l32 -34q48 38 218 144q56 36 78 56z" />
<glyph unicode="&#xce;" horiz-adv-x="650" d="M570 0q0 44 -32 50q-10 2 -20 2h-106v1096h158v52h-490v-52h160v-1096h-160v-52h490zM572 1258l24 32q-46 50 -110 130q-80 98 -116 116q-20 10 -42 10q-52 0 -112 -72q-14 -16 -44 -54q-64 -82 -108 -132l24 -28q114 74 244 140q152 -80 240 -142z" />
<glyph unicode="&#xcf;" horiz-adv-x="650" d="M570 0q0 44 -32 50q-10 2 -20 2h-106v1096h158v52h-490v-52h160v-1096h-160v-52h490zM248 1402q0 66 -58 92q-20 8 -40 8q-68 0 -94 -60q-8 -20 -8 -40q0 -70 64 -94q18 -6 38 -6q66 0 90 62q8 18 8 38zM614 1402q0 66 -60 92q-20 8 -40 8q-66 0 -92 -60q-8 -20 -8 -40 q0 -70 62 -94q20 -6 38 -6q68 0 92 62q8 18 8 38z" />
<glyph unicode="&#xd0;" horiz-adv-x="1358" d="M80 1200v-52h160v-488h-140v-80h140v-528h-160v-52h552q270 0 444 168q172 166 172 432q0 344 -252 504q-154 96 -358 96h-558zM632 1148q316 0 394 -288q30 -106 30 -252q0 -498 -340 -550q-38 -6 -78 -6h-226v528h248v80h-248v488h220z" />
<glyph unicode="&#xd1;" horiz-adv-x="1338" d="M908 1148h170v-896l-760 948h-278v-52h160v-1096h-160v-52h410q0 44 -32 50q-10 2 -20 2h-118v926l786 -988l92 20v1138h160v52h-410v-52zM576 1526q60 0 142 -64q70 -54 108 -54q74 0 104 102l4 12l42 -10q-46 -212 -180 -214q-60 0 -140 64q-70 54 -112 54 q-70 0 -100 -94q-4 -10 -6 -20l-40 10q46 212 178 214z" />
<glyph unicode="&#xd2;" horiz-adv-x="1410" d="M710 1220q-240 0 -412 -158q-188 -174 -188 -454q0 -324 222 -500q162 -128 372 -128q236 0 406 160q190 178 190 460q0 330 -230 502q-156 118 -360 118zM710 36q-290 0 -372 310q-28 110 -28 254q0 476 288 552q50 12 106 12q394 -4 396 -556q0 -436 -242 -542 q-68 -30 -148 -30zM876 1260q-52 56 -152 214q-34 52 -52 72q-28 26 -58 26q-54 0 -82 -52q-10 -18 -10 -38q2 -30 26 -56q20 -20 162 -106q82 -52 136 -94z" />
<glyph unicode="&#xd3;" horiz-adv-x="1410" d="M710 1220q-240 0 -412 -158q-188 -174 -188 -454q0 -324 222 -500q162 -128 372 -128q236 0 406 160q190 178 190 460q0 330 -230 502q-156 118 -360 118zM710 36q-290 0 -372 310q-28 110 -28 254q0 476 288 552q50 12 106 12q394 -4 396 -556q0 -436 -242 -542 q-68 -30 -148 -30zM886 1426q24 28 26 56q0 52 -54 80q-20 10 -38 10q-32 -2 -58 -26q-16 -16 -96 -142q-58 -90 -108 -144l32 -34q48 38 218 144q56 36 78 56z" />
<glyph unicode="&#xd4;" horiz-adv-x="1410" d="M710 1220q-240 0 -412 -158q-188 -174 -188 -454q0 -324 222 -500q162 -128 372 -128q236 0 406 160q190 178 190 460q0 330 -230 502q-156 118 -360 118zM710 36q-290 0 -372 310q-28 110 -28 254q0 476 288 552q50 12 106 12q394 -4 396 -556q0 -436 -242 -542 q-68 -30 -148 -30zM948 1258l24 32q-46 50 -110 130q-80 98 -116 116q-20 10 -42 10q-52 0 -112 -72q-14 -16 -44 -54q-64 -82 -108 -132l24 -28q114 74 244 140q152 -80 240 -142z" />
<glyph unicode="&#xd5;" horiz-adv-x="1410" d="M710 1220q-240 0 -412 -158q-188 -174 -188 -454q0 -324 222 -500q162 -128 372 -128q236 0 406 160q190 178 190 460q0 330 -230 502q-156 118 -360 118zM710 36q-290 0 -372 310q-28 110 -28 254q0 476 288 552q50 12 106 12q394 -4 396 -556q0 -436 -242 -542 q-68 -30 -148 -30zM608 1526q60 0 142 -64q70 -54 108 -54q74 0 104 102l4 12l42 -10q-46 -212 -180 -214q-60 0 -140 64q-70 54 -112 54q-70 0 -100 -94q-4 -10 -6 -20l-40 10q46 212 178 214z" />
<glyph unicode="&#xd6;" horiz-adv-x="1410" d="M710 1220q-240 0 -412 -158q-188 -174 -188 -454q0 -324 222 -500q162 -128 372 -128q236 0 406 160q190 178 190 460q0 330 -230 502q-156 118 -360 118zM710 36q-290 0 -372 310q-28 110 -28 254q0 476 288 552q50 12 106 12q394 -4 396 -556q0 -436 -242 -542 q-68 -30 -148 -30zM624 1402q0 66 -58 92q-20 8 -40 8q-68 0 -94 -60q-8 -20 -8 -40q0 -70 64 -94q18 -6 38 -6q66 0 90 62q8 18 8 38zM990 1402q0 66 -60 92q-20 8 -40 8q-66 0 -92 -60q-8 -20 -8 -40q0 -70 62 -94q20 -6 38 -6q68 0 92 62q8 18 8 38z" />
<glyph unicode="&#xd7;" horiz-adv-x="800" d="M654 158l56 56l-254 256l254 254l-54 54l-254 -254l-256 254l-56 -56l256 -254l-254 -254l54 -54l254 254z" />
<glyph unicode="&#xd8;" horiz-adv-x="1410" d="M710 1220q-240 0 -412 -158q-188 -174 -188 -454q0 -324 224 -502q42 -32 88 -56l-142 -360h120l124 316q96 -26 180 -26q236 0 406 160q190 178 190 460q0 332 -230 502q-42 32 -92 56l104 262h-120l-88 -222q-86 22 -164 22zM310 600q0 476 288 552q50 12 106 12 q80 0 148 -24l-398 -1008q-144 140 -144 468zM710 36q-90 0 -162 32l400 1014q152 -132 152 -474q0 -436 -242 -542q-68 -30 -148 -30z" />
<glyph unicode="&#xd9;" horiz-adv-x="1264" d="M20 1148h160v-698q4 -468 466 -470q352 0 426 288q22 88 22 200v680h160v52h-390v-52h160v-692q0 -388 -288 -418q-24 -2 -48 -2q-244 0 -308 206q-28 90 -28 220v686h158v52h-490v-52zM844 1260q-52 56 -152 214q-34 52 -52 72q-28 26 -58 26q-54 0 -82 -52 q-10 -18 -10 -38q2 -30 26 -56q20 -20 162 -106q82 -52 136 -94z" />
<glyph unicode="&#xda;" horiz-adv-x="1264" d="M20 1148h160v-698q4 -468 466 -470q352 0 426 288q22 88 22 200v680h160v52h-390v-52h160v-692q0 -388 -288 -418q-24 -2 -48 -2q-244 0 -308 206q-28 90 -28 220v686h158v52h-490v-52zM854 1426q24 28 26 56q0 52 -54 80q-20 10 -38 10q-32 -2 -58 -26q-16 -16 -96 -142 q-58 -90 -108 -144l32 -34q48 38 218 144q56 36 78 56z" />
<glyph unicode="&#xdb;" horiz-adv-x="1264" d="M20 1148h160v-698q4 -468 466 -470q352 0 426 288q22 88 22 200v680h160v52h-390v-52h160v-692q0 -388 -288 -418q-24 -2 -48 -2q-244 0 -308 206q-28 90 -28 220v686h158v52h-490v-52zM916 1258l24 32q-46 50 -110 130q-80 98 -116 116q-20 10 -42 10q-52 0 -112 -72 q-14 -16 -44 -54q-64 -82 -108 -132l24 -28q114 74 244 140q152 -80 240 -142z" />
<glyph unicode="&#xdc;" horiz-adv-x="1264" d="M20 1148h160v-698q4 -468 466 -470q352 0 426 288q22 88 22 200v680h160v52h-390v-52h160v-692q0 -388 -288 -418q-24 -2 -48 -2q-244 0 -308 206q-28 90 -28 220v686h158v52h-490v-52zM592 1402q0 66 -58 92q-20 8 -40 8q-68 0 -94 -60q-8 -20 -8 -40q0 -70 64 -94 q18 -6 38 -6q66 0 90 62q8 18 8 38zM958 1402q0 66 -60 92q-20 8 -40 8q-66 0 -92 -60q-8 -20 -8 -40q0 -70 62 -94q20 -6 38 -6q68 0 92 62q8 18 8 38z" />
<glyph unicode="&#xdd;" horiz-adv-x="1108" d="M806 0q0 44 -32 50q-10 2 -20 2h-108v446l302 594q46 54 108 56q44 0 50 32q2 10 2 20h-356v-52h160l-304 -582l-318 582h152v52h-452v-52h110l376 -670v-426h-160v-52h490zM760 1426q24 28 26 56q0 52 -54 80q-20 10 -38 10q-32 -2 -58 -26q-16 -16 -96 -142 q-58 -90 -108 -144l32 -34q48 38 218 144q56 36 78 56z" />
<glyph unicode="&#xde;" horiz-adv-x="1170" d="M626 908q178 0 230 -160q16 -52 16 -112q0 -260 -232 -286q-24 -2 -48 -2h-184v560h218zM582 0q0 46 -26 50q-12 2 -24 2h-124v238h176q328 0 434 186q42 70 42 162q0 198 -172 278q-92 44 -220 44h-260v188h174v52h-512v-52h166v-1096h-166v-52h512z" />
<glyph unicode="&#xdf;" horiz-adv-x="1088" d="M1048 238q0 140 -144 254q-22 18 -68 50q-110 78 -134 124q-16 30 -16 60q0 64 80 116q94 58 106 68q66 60 66 150q0 122 -136 190q-92 46 -210 46q-258 0 -342 -210q-36 -88 -36 -204v-32h-142v-52h142v-642q-4 -104 -152 -104v-52h302v862q0 324 140 378q34 14 80 14 q126 0 176 -110q20 -48 20 -104q0 -106 -90 -170q-12 -8 -34 -24q-80 -52 -100 -96q-12 -30 -12 -66q0 -116 132 -218q20 -16 62 -46q116 -84 146 -136q22 -38 22 -80q0 -128 -88 -166q-26 -12 -54 -12q-76 0 -108 76q-30 70 -38 80q-22 24 -54 24q-66 0 -76 -58 q-2 -10 -2 -16q0 -84 124 -128q66 -22 144 -22q152 0 238 100q56 66 56 156z" />
<glyph unicode="&#xe0;" horiz-adv-x="964" d="M782 -20q154 0 170 186q2 12 2 22l-52 2q-14 -146 -78 -148q-52 4 -54 104v422q0 286 -286 302h-36q-224 0 -300 -104q-24 -34 -24 -68q0 -62 58 -72q10 -2 20 -2q46 0 68 58q28 74 38 88q38 50 118 50q188 -12 194 -206v-126q-470 0 -538 -196q-12 -38 -12 -82 q0 -152 134 -208q54 -22 114 -22q146 0 246 100q36 38 54 80q24 -178 164 -180zM384 60q-122 0 -150 122q-6 28 -6 62q0 134 154 170q82 18 238 20v-160q-30 -138 -146 -194q-46 -20 -90 -20zM652 1000q-52 56 -152 214q-32 52 -52 72q-28 26 -58 26q-54 0 -82 -52 q-10 -18 -10 -38q2 -30 26 -56q20 -20 162 -106q82 -52 136 -94z" />
<glyph unicode="&#xe1;" horiz-adv-x="964" d="M782 -20q154 0 170 186q2 12 2 22l-52 2q-14 -146 -78 -148q-52 4 -54 104v422q0 286 -286 302h-36q-224 0 -300 -104q-24 -34 -24 -68q0 -62 58 -72q10 -2 20 -2q46 0 68 58q28 74 38 88q38 50 118 50q188 -12 194 -206v-126q-470 0 -538 -196q-12 -38 -12 -82 q0 -152 134 -208q54 -22 114 -22q146 0 246 100q36 38 54 80q24 -178 164 -180zM384 60q-122 0 -150 122q-6 28 -6 62q0 134 154 170q82 18 238 20v-160q-30 -138 -146 -194q-46 -20 -90 -20zM662 1166q24 28 26 56q0 52 -54 80q-20 10 -38 10q-32 -2 -58 -26 q-16 -16 -96 -142q-58 -90 -108 -144l32 -34q48 38 218 144q56 36 78 56z" />
<glyph unicode="&#xe2;" horiz-adv-x="964" d="M782 -20q154 0 170 186q2 12 2 22l-52 2q-14 -146 -78 -148q-52 4 -54 104v422q0 286 -286 302h-36q-224 0 -300 -104q-24 -34 -24 -68q0 -62 58 -72q10 -2 20 -2q46 0 68 58q28 74 38 88q38 50 118 50q188 -12 194 -206v-126q-470 0 -538 -196q-12 -38 -12 -82 q0 -152 134 -208q54 -22 114 -22q146 0 246 100q36 38 54 80q24 -178 164 -180zM384 60q-122 0 -150 122q-6 28 -6 62q0 134 154 170q82 18 238 20v-160q-30 -138 -146 -194q-46 -20 -90 -20zM724 998l24 32q-46 50 -110 130q-80 98 -116 116q-20 10 -42 10q-52 0 -112 -72 q-14 -16 -44 -54q-64 -82 -108 -132l24 -28q114 74 244 140q152 -80 240 -142z" />
<glyph unicode="&#xe3;" horiz-adv-x="964" d="M782 -20q154 0 170 186q2 12 2 22l-52 2q-14 -146 -78 -148q-52 4 -54 104v422q0 286 -286 302h-36q-224 0 -300 -104q-24 -34 -24 -68q0 -62 58 -72q10 -2 20 -2q46 0 68 58q28 74 38 88q38 50 118 50q188 -12 194 -206v-126q-470 0 -538 -196q-12 -38 -12 -82 q0 -152 134 -208q54 -22 114 -22q146 0 246 100q36 38 54 80q24 -178 164 -180zM384 60q-122 0 -150 122q-6 28 -6 62q0 134 154 170q82 18 238 20v-160q-30 -138 -146 -194q-46 -20 -90 -20zM384 1266q60 0 142 -64q70 -54 108 -54q74 0 104 102l4 12l42 -10 q-46 -212 -180 -214q-60 0 -140 64q-70 54 -112 54q-70 0 -100 -94q-4 -10 -6 -20l-40 10q46 212 178 214z" />
<glyph unicode="&#xe4;" horiz-adv-x="964" d="M782 -20q154 0 170 186q2 12 2 22l-52 2q-14 -146 -78 -148q-52 4 -54 104v422q0 286 -286 302h-36q-224 0 -300 -104q-24 -34 -24 -68q0 -62 58 -72q10 -2 20 -2q46 0 68 58q28 74 38 88q38 50 118 50q188 -12 194 -206v-126q-470 0 -538 -196q-12 -38 -12 -82 q0 -152 134 -208q54 -22 114 -22q146 0 246 100q36 38 54 80q24 -178 164 -180zM384 60q-122 0 -150 122q-6 28 -6 62q0 134 154 170q82 18 238 20v-160q-30 -138 -146 -194q-46 -20 -90 -20zM400 1142q0 66 -58 92q-20 8 -40 8q-68 0 -94 -60q-8 -20 -8 -40q0 -70 64 -94 q18 -6 38 -6q66 0 90 62q8 18 8 38zM766 1142q0 66 -60 92q-20 8 -40 8q-66 0 -92 -60q-8 -20 -8 -40q0 -70 62 -94q20 -6 38 -6q68 0 92 62q8 18 8 38z" />
<glyph unicode="&#xe5;" horiz-adv-x="964" d="M782 -20q154 0 170 186q2 12 2 22l-52 2q-14 -146 -78 -148q-52 4 -54 104v422q0 286 -286 302h-36q-224 0 -300 -104q-24 -34 -24 -68q0 -62 58 -72q10 -2 20 -2q46 0 68 58q28 74 38 88q38 50 118 50q188 -12 194 -206v-126q-470 0 -538 -196q-12 -38 -12 -82 q0 -152 134 -208q54 -22 114 -22q146 0 246 100q36 38 54 80q24 -178 164 -180zM384 60q-122 0 -150 122q-6 28 -6 62q0 134 154 170q82 18 238 20v-160q-30 -138 -146 -194q-46 -20 -90 -20zM384 1146q0 108 68 132q16 6 32 6q86 0 100 -102q2 -16 2 -32q0 -102 -64 -132 q-18 -8 -38 -8q-88 0 -98 110q-2 14 -2 26zM490 1330q-150 0 -198 -104q-16 -36 -16 -76q0 -118 102 -166q46 -20 102 -20q144 0 196 106q18 38 18 82q0 114 -104 160q-46 18 -100 18z" />
<glyph unicode="&#xe6;" horiz-adv-x="1462" d="M1032 820q140 0 186 -120q14 -38 14 -80q0 -98 -90 -120q-52 -12 -146 -10l-212 6q10 244 162 308q40 16 86 16zM1382 200l-52 10q-70 -152 -226 -172q-20 -2 -38 -2q-210 0 -264 250q-16 70 -18 154l240 -4q244 -4 314 46q54 40 54 114q0 136 -138 216q-98 58 -226 58 q-184 -2 -292 -134q-68 134 -282 134q-232 0 -308 -106q-22 -32 -22 -66q0 -62 58 -72q10 -2 20 -2q46 0 68 56q28 76 40 92q40 48 122 48q174 0 196 -160q4 -22 4 -46v-126q-464 0 -544 -180q-18 -46 -18 -98q0 -154 140 -210q52 -20 114 -20q168 0 280 132q44 54 62 110 q90 -238 368 -242q224 0 322 164q16 28 26 56zM390 60q-136 0 -158 134q-4 24 -4 50q0 134 160 170q86 18 244 20v-160q-30 -134 -146 -190q-50 -24 -96 -24z" />
<glyph unicode="&#xe7;" horiz-adv-x="870" d="M80 416q0 -244 180 -364q66 -44 148 -62l-80 -160l28 -18q48 34 102 34q94 0 108 -86q2 -14 2 -28q0 -104 -80 -130q-20 -6 -38 -6q-80 2 -140 80l-32 -24q68 -104 208 -106q132 0 198 84q34 44 34 98q0 108 -112 152q-46 16 -94 16q-58 0 -104 -20l48 106q18 -2 52 -2 q208 0 314 146q24 34 38 68l-52 18q-74 -158 -244 -174q-16 -2 -32 -2q-142 0 -222 142q-60 108 -60 256q0 262 138 350q58 36 128 36q108 0 130 -84q4 -16 10 -50q12 -80 44 -100q20 -10 44 -12q68 -4 86 56q4 14 4 26q0 102 -130 168q-92 46 -200 46q-268 0 -374 -218 q-50 -104 -50 -236z" />
<glyph unicode="&#xe8;" horiz-adv-x="928" d="M498 820q140 0 186 -118q16 -38 16 -82q0 -100 -96 -122q-50 -10 -142 -8l-212 6q10 230 150 300q46 24 98 24zM846 192l-50 18q-70 -152 -226 -172q-20 -2 -38 -2q-210 0 -264 250q-16 70 -18 154l240 -4q244 -4 314 46q54 40 54 114q0 136 -138 216q-98 58 -226 58 q-250 0 -358 -208q-56 -108 -56 -244q0 -248 178 -368q106 -70 242 -70q216 0 318 156q16 28 28 56zM634 1000q-52 56 -152 214q-32 52 -52 72q-28 26 -58 26q-54 0 -82 -52q-10 -18 -10 -38q2 -30 26 -56q20 -20 162 -106q82 -52 136 -94z" />
<glyph unicode="&#xe9;" horiz-adv-x="928" d="M498 820q140 0 186 -118q16 -38 16 -82q0 -100 -96 -122q-50 -10 -142 -8l-212 6q10 230 150 300q46 24 98 24zM846 192l-50 18q-70 -152 -226 -172q-20 -2 -38 -2q-210 0 -264 250q-16 70 -18 154l240 -4q244 -4 314 46q54 40 54 114q0 136 -138 216q-98 58 -226 58 q-250 0 -358 -208q-56 -108 -56 -244q0 -248 178 -368q106 -70 242 -70q216 0 318 156q16 28 28 56zM644 1166q24 28 26 56q0 52 -54 80q-20 10 -38 10q-32 -2 -58 -26q-16 -16 -96 -142q-58 -90 -108 -144l32 -34q48 38 218 144q56 36 78 56z" />
<glyph unicode="&#xea;" horiz-adv-x="928" d="M498 820q140 0 186 -118q16 -38 16 -82q0 -100 -96 -122q-50 -10 -142 -8l-212 6q10 230 150 300q46 24 98 24zM846 192l-50 18q-70 -152 -226 -172q-20 -2 -38 -2q-210 0 -264 250q-16 70 -18 154l240 -4q244 -4 314 46q54 40 54 114q0 136 -138 216q-98 58 -226 58 q-250 0 -358 -208q-56 -108 -56 -244q0 -248 178 -368q106 -70 242 -70q216 0 318 156q16 28 28 56zM706 998l24 32q-46 50 -110 130q-80 98 -116 116q-20 10 -42 10q-52 0 -112 -72q-14 -16 -44 -54q-64 -82 -108 -132l24 -28q114 74 244 140q152 -80 240 -142z" />
<glyph unicode="&#xeb;" horiz-adv-x="928" d="M498 820q140 0 186 -118q16 -38 16 -82q0 -100 -96 -122q-50 -10 -142 -8l-212 6q10 230 150 300q46 24 98 24zM846 192l-50 18q-70 -152 -226 -172q-20 -2 -38 -2q-210 0 -264 250q-16 70 -18 154l240 -4q244 -4 314 46q54 40 54 114q0 136 -138 216q-98 58 -226 58 q-250 0 -358 -208q-56 -108 -56 -244q0 -248 178 -368q106 -70 242 -70q216 0 318 156q16 28 28 56zM382 1142q0 66 -58 92q-20 8 -40 8q-68 0 -94 -60q-8 -20 -8 -40q0 -70 64 -94q18 -6 38 -6q66 0 90 62q8 18 8 38zM748 1142q0 66 -60 92q-20 8 -40 8q-66 0 -92 -60 q-8 -20 -8 -40q0 -70 62 -94q20 -6 38 -6q68 0 92 62q8 18 8 38z" />
<glyph unicode="&#xec;" horiz-adv-x="574" d="M476 52h-104v798h-312v-52h152v-642q-4 -104 -152 -104v-52h464q0 46 -26 50q-10 2 -22 2zM458 1000q-52 56 -152 214q-32 52 -52 72q-28 26 -58 26q-54 0 -82 -52q-10 -18 -10 -38q2 -30 26 -56q20 -20 162 -106q82 -52 136 -94z" />
<glyph unicode="&#xed;" horiz-adv-x="574" d="M476 52h-104v798h-312v-52h152v-642q-4 -104 -152 -104v-52h464q0 46 -26 50q-10 2 -22 2zM468 1166q24 28 26 56q0 52 -54 80q-20 10 -38 10q-32 -2 -58 -26q-16 -16 -96 -142q-58 -90 -108 -144l32 -34q48 38 218 144q56 36 78 56z" />
<glyph unicode="&#xee;" horiz-adv-x="574" d="M476 52h-104v798h-312v-52h152v-642q-4 -104 -152 -104v-52h464q0 46 -26 50q-10 2 -22 2zM530 998l24 32q-46 50 -110 130q-80 98 -116 116q-20 10 -42 10q-52 0 -112 -72q-14 -16 -44 -54q-64 -82 -108 -132l24 -28q114 74 244 140q152 -80 240 -142z" />
<glyph unicode="&#xef;" horiz-adv-x="574" d="M226 1142q0 66 -58 92q-20 8 -40 8q-68 0 -94 -60q-8 -20 -8 -40q0 -70 64 -94q18 -6 38 -6q66 0 90 62q8 18 8 38zM552 1142q0 66 -60 92q-20 8 -40 8q-66 0 -92 -60q-8 -20 -8 -40q0 -70 62 -94q20 -6 38 -6q68 0 92 62q8 18 8 38zM476 52h-104v798h-312v-52h152v-642 q-4 -104 -152 -104v-52h464q0 46 -26 50q-10 2 -22 2z" />
<glyph unicode="&#xf0;" horiz-adv-x="1040" d="M948 492q0 286 -166 512q-64 84 -142 146l182 104l-30 52l-206 -116q-160 100 -354 110l-6 -54q160 -12 278 -100l-244 -138l32 -56l262 150q126 -132 176 -354q-96 58 -216 58q-190 0 -318 -126q-116 -116 -116 -280q0 -230 180 -346q114 -74 252 -74q264 0 376 228 q60 122 60 284zM250 392q0 272 164 344q48 20 104 20q162 0 228 -156q36 -82 36 -198q0 -196 -100 -302q-68 -70 -164 -70q-196 0 -252 212q-16 68 -16 150z" />
<glyph unicode="&#xf1;" horiz-adv-x="1136" d="M450 50h-90v432q6 186 132 268q54 34 110 34q122 0 166 -114q18 -46 18 -104v-396q0 -92 -52 -110q-30 -10 -98 -10v-50h450q0 44 -30 48q-8 2 -20 2h-100v496q0 200 -138 286q-64 38 -138 38q-148 0 -244 -118q-36 -46 -58 -102l-8 200h-290v-50h150v-630 q0 -92 -52 -110q-30 -10 -98 -10v-50h440q0 44 -30 48q-8 2 -20 2zM470 1266q60 0 142 -64q70 -54 108 -54q74 0 104 102l4 12l42 -10q-46 -212 -180 -214q-60 0 -140 64q-70 54 -112 54q-70 0 -100 -94q-4 -10 -6 -20l-40 10q46 212 178 214z" />
<glyph unicode="&#xf2;" horiz-adv-x="1026" d="M250 426q0 310 170 378q44 16 92 16q222 0 258 -280q6 -48 6 -106q0 -336 -184 -394q-36 -10 -74 -10q-202 0 -254 240q-14 70 -14 156zM518 870q-192 0 -320 -132q-118 -122 -118 -304q0 -252 184 -378q112 -76 248 -76q192 0 318 136q116 124 116 310q0 252 -186 374 q-110 70 -242 70zM694 1000q-52 56 -152 214q-34 52 -52 72q-28 26 -58 26q-54 0 -82 -52q-10 -18 -10 -38q2 -30 26 -56q20 -20 162 -106q82 -52 136 -94z" />
<glyph unicode="&#xf3;" horiz-adv-x="1026" d="M250 426q0 310 170 378q44 16 92 16q222 0 258 -280q6 -48 6 -106q0 -336 -184 -394q-36 -10 -74 -10q-202 0 -254 240q-14 70 -14 156zM518 870q-192 0 -320 -132q-118 -122 -118 -304q0 -252 184 -378q112 -76 248 -76q192 0 318 136q116 124 116 310q0 252 -186 374 q-110 70 -242 70zM704 1166q24 28 26 56q0 52 -54 80q-20 10 -38 10q-32 -2 -58 -26q-16 -16 -96 -142q-58 -90 -108 -144l32 -34q48 38 218 144q56 36 78 56z" />
<glyph unicode="&#xf4;" horiz-adv-x="1026" d="M250 426q0 310 170 378q44 16 92 16q222 0 258 -280q6 -48 6 -106q0 -336 -184 -394q-36 -10 -74 -10q-202 0 -254 240q-14 70 -14 156zM518 870q-192 0 -320 -132q-118 -122 -118 -304q0 -252 184 -378q112 -76 248 -76q192 0 318 136q116 124 116 310q0 252 -186 374 q-110 70 -242 70zM766 998l24 32q-46 50 -110 130q-80 98 -116 116q-20 10 -42 10q-52 0 -112 -72q-14 -16 -44 -54q-64 -82 -108 -132l24 -28q114 74 244 140q152 -80 240 -142z" />
<glyph unicode="&#xf5;" horiz-adv-x="1026" d="M250 426q0 310 170 378q44 16 92 16q222 0 258 -280q6 -48 6 -106q0 -336 -184 -394q-36 -10 -74 -10q-202 0 -254 240q-14 70 -14 156zM518 870q-192 0 -320 -132q-118 -122 -118 -304q0 -252 184 -378q112 -76 248 -76q192 0 318 136q116 124 116 310q0 252 -186 374 q-110 70 -242 70zM426 1266q60 0 142 -64q70 -54 108 -54q74 0 104 102l4 12l42 -10q-46 -212 -180 -214q-60 0 -140 64q-70 54 -112 54q-70 0 -100 -94q-4 -10 -6 -20l-40 10q46 212 178 214z" />
<glyph unicode="&#xf6;" horiz-adv-x="1026" d="M250 426q0 310 170 378q44 16 92 16q222 0 258 -280q6 -48 6 -106q0 -336 -184 -394q-36 -10 -74 -10q-202 0 -254 240q-14 70 -14 156zM518 870q-192 0 -320 -132q-118 -122 -118 -304q0 -252 184 -378q112 -76 248 -76q192 0 318 136q116 124 116 310q0 252 -186 374 q-110 70 -242 70zM442 1142q0 66 -58 92q-20 8 -40 8q-68 0 -94 -60q-8 -20 -8 -40q0 -70 64 -94q18 -6 38 -6q66 0 90 62q8 18 8 38zM808 1142q0 66 -60 92q-20 8 -40 8q-66 0 -92 -60q-8 -20 -8 -40q0 -70 62 -94q20 -6 38 -6q68 0 92 62q8 18 8 38z" />
<glyph unicode="&#xf7;" horiz-adv-x="938" d="M848 432v72h-758v-72h758zM376 156q2 64 64 94q22 12 46 12q66 -2 96 -60q12 -24 12 -48q0 -68 -62 -96q-26 -10 -50 -10q-42 2 -74 32q-32 34 -32 76zM376 762q2 64 64 94q24 12 46 12q66 -2 96 -60q12 -24 12 -48q0 -68 -62 -96q-26 -10 -50 -10q-42 2 -74 32 q-32 34 -32 76z" />
<glyph unicode="&#xf8;" horiz-adv-x="1026" d="M58 -18l136 134q128 -136 318 -136q192 0 318 136q116 124 116 310q-2 194 -114 312l148 144l-42 38l-146 -142q-116 92 -274 92q-192 0 -320 -132q-118 -122 -118 -304q2 -158 78 -274l-142 -138zM250 426q0 310 170 378q44 16 92 16q140 -2 206 -114l-452 -440 q-16 78 -16 160zM518 30q-168 2 -234 172l460 450q32 -92 32 -218q0 -336 -184 -394q-36 -10 -74 -10z" />
<glyph unicode="&#xf9;" horiz-adv-x="1134" d="M1030 50h-100v800h-314v-50h164v-432q0 -180 -126 -264q-56 -38 -116 -38q-164 0 -190 168q-4 28 -4 60v556h-304v-50h154v-476q2 -342 286 -344q150 0 246 122q36 46 58 102l14 -204h282q0 44 -30 48q-8 2 -20 2zM738 1000q-52 56 -152 214q-34 52 -52 72q-28 26 -58 26 q-54 0 -82 -52q-10 -18 -10 -38q2 -30 26 -56q20 -20 162 -106q82 -52 136 -94z" />
<glyph unicode="&#xfa;" horiz-adv-x="1134" d="M1030 50h-100v800h-314v-50h164v-432q0 -180 -126 -264q-56 -38 -116 -38q-164 0 -190 168q-4 28 -4 60v556h-304v-50h154v-476q2 -342 286 -344q150 0 246 122q36 46 58 102l14 -204h282q0 44 -30 48q-8 2 -20 2zM748 1166q24 28 26 56q0 52 -54 80q-20 10 -38 10 q-32 -2 -58 -26q-16 -16 -96 -142q-58 -90 -108 -144l32 -34q48 38 218 144q56 36 78 56z" />
<glyph unicode="&#xfb;" horiz-adv-x="1134" d="M1030 50h-100v800h-314v-50h164v-432q0 -180 -126 -264q-56 -38 -116 -38q-164 0 -190 168q-4 28 -4 60v556h-304v-50h154v-476q2 -342 286 -344q150 0 246 122q36 46 58 102l14 -204h282q0 44 -30 48q-8 2 -20 2zM810 998l24 32q-46 50 -110 130q-80 98 -116 116 q-20 10 -42 10q-52 0 -112 -72q-14 -16 -44 -54q-64 -82 -108 -132l24 -28q114 74 244 140q152 -80 240 -142z" />
<glyph unicode="&#xfc;" horiz-adv-x="1134" d="M1030 50h-100v800h-314v-50h164v-432q0 -180 -126 -264q-56 -38 -116 -38q-164 0 -190 168q-4 28 -4 60v556h-304v-50h154v-476q2 -342 286 -344q150 0 246 122q36 46 58 102l14 -204h282q0 44 -30 48q-8 2 -20 2zM486 1142q0 66 -58 92q-20 8 -40 8q-68 0 -94 -60 q-8 -20 -8 -40q0 -70 64 -94q18 -6 38 -6q66 0 90 62q8 18 8 38zM852 1142q0 66 -60 92q-20 8 -40 8q-66 0 -92 -60q-8 -20 -8 -40q0 -70 62 -94q20 -6 38 -6q68 0 92 62q8 18 8 38z" />
<glyph unicode="&#xfd;" horiz-adv-x="968" d="M206 -318q-32 0 -48 48q-22 60 -42 74q-18 12 -42 12q-64 0 -74 -56q-2 -8 -2 -14q0 -76 88 -110q40 -16 84 -16q158 0 274 194q48 78 92 186l296 730q20 56 44 64q14 4 32 4q40 0 46 22q4 12 4 30h-304v-52h146l-256 -640l-274 640h134v52h-390v-52h98l360 -798 q-112 -264 -210 -306q-28 -12 -56 -12zM736 1166q24 28 26 56q0 52 -54 80q-20 10 -38 10q-32 -2 -58 -26q-16 -16 -96 -142q-58 -90 -108 -144l32 -34q48 38 218 144q56 36 78 56z" />
<glyph unicode="&#xfe;" horiz-adv-x="1114" d="M366 -328v412q110 -96 254 -104q178 0 298 134q116 130 116 330q0 228 -126 346q-88 80 -214 80q-194 0 -290 -154q-24 -40 -40 -84v668h-304v-52h156v-1472q0 -82 -68 -98q-30 -6 -84 -6v-52h494q0 46 -26 50q-10 2 -22 2h-144zM630 790q174 0 220 -218q14 -66 14 -148 q0 -294 -158 -372q-46 -22 -100 -22q-154 0 -212 162q-30 82 -30 194q0 260 134 360q60 44 132 44z" />
<glyph unicode="&#xff;" horiz-adv-x="968" d="M206 -318q-32 0 -48 48q-22 60 -42 74q-18 12 -42 12q-64 0 -74 -56q-2 -8 -2 -14q0 -76 88 -110q40 -16 84 -16q158 0 274 194q48 78 92 186l296 730q20 56 44 64q14 4 32 4q40 0 46 22q4 12 4 30h-304v-52h146l-256 -640l-274 640h134v52h-390v-52h98l360 -798 q-112 -264 -210 -306q-28 -12 -56 -12zM418 1142q0 66 -58 92q-20 8 -40 8q-68 0 -94 -60q-8 -20 -8 -40q0 -70 64 -94q18 -6 38 -6q66 0 90 62q8 18 8 38zM784 1142q0 66 -60 92q-20 8 -40 8q-66 0 -92 -60q-8 -20 -8 -40q0 -70 62 -94q20 -6 38 -6q68 0 92 62q8 18 8 38z " />
<glyph unicode="&#x152;" horiz-adv-x="1800" d="M742 44q-430 4 -432 556q4 554 416 556q100 0 202 -32v-1050q-92 -30 -186 -30zM1000 0h690l10 360h-40l-26 -94q-62 -212 -240 -214h-294v538h412v58h-412v500h294q170 0 234 -202l4 -12l28 -94h40l-10 360h-692q-46 0 -140 6q-94 4 -138 4q-256 0 -430 -162 q-180 -168 -180 -440q0 -330 236 -502q162 -116 378 -116q62 0 172 6q74 4 104 4z" />
<glyph unicode="&#x153;" horiz-adv-x="1614" d="M1184 820q140 0 186 -120q14 -38 14 -80q0 -98 -90 -120q-52 -12 -146 -10l-212 6q10 244 162 308q40 16 86 16zM250 426q0 310 170 378q44 16 92 16q222 0 258 -280q6 -48 6 -106q0 -336 -184 -394q-36 -10 -74 -10q-202 0 -254 240q-14 70 -14 156zM518 870 q-192 0 -320 -132q-118 -122 -118 -304q0 -252 184 -378q112 -76 248 -76q186 0 308 140q18 22 32 42q98 -162 292 -180q20 -2 42 -2q224 0 322 164q16 28 26 56l-52 10q-70 -152 -226 -172q-20 -2 -38 -2q-210 0 -264 250q-16 70 -18 154l240 -4q244 -4 314 46 q54 40 54 114q0 136 -138 216q-98 58 -226 58q-222 -2 -326 -178q-104 156 -292 176q-22 2 -44 2z" />
<glyph unicode="&#x178;" horiz-adv-x="1108" d="M806 0q0 44 -32 50q-10 2 -20 2h-108v446l302 594q46 54 108 56q44 0 50 32q2 10 2 20h-356v-52h160l-304 -582l-318 582h152v52h-452v-52h110l376 -670v-426h-160v-52h490zM498 1402q0 66 -58 92q-20 8 -40 8q-68 0 -94 -60q-8 -20 -8 -40q0 -70 64 -94q18 -6 38 -6 q66 0 90 62q8 18 8 38zM864 1402q0 66 -60 92q-20 8 -40 8q-66 0 -92 -60q-8 -20 -8 -40q0 -70 62 -94q20 -6 38 -6q68 0 92 62q8 18 8 38z" />
<glyph unicode="&#x2c6;" d="M742 998l24 32q-46 50 -110 130q-80 98 -116 116q-20 10 -42 10q-52 0 -112 -72q-14 -16 -44 -54q-64 -82 -108 -132l24 -28q114 74 244 140q152 -80 240 -142z" />
<glyph unicode="&#x2dc;" d="M402 1266q60 0 142 -64q70 -54 108 -54q74 0 104 102l4 12l42 -10q-46 -212 -180 -214q-60 0 -140 64q-70 54 -112 54q-70 0 -100 -94q-4 -10 -6 -20l-40 10q46 212 178 214z" />
<glyph unicode="&#x2000;" horiz-adv-x="786" />
<glyph unicode="&#x2001;" horiz-adv-x="1572" />
<glyph unicode="&#x2002;" horiz-adv-x="786" />
<glyph unicode="&#x2003;" horiz-adv-x="1572" />
<glyph unicode="&#x2004;" horiz-adv-x="524" />
<glyph unicode="&#x2005;" horiz-adv-x="393" />
<glyph unicode="&#x2006;" horiz-adv-x="262" />
<glyph unicode="&#x2007;" horiz-adv-x="262" />
<glyph unicode="&#x2008;" horiz-adv-x="196" />
<glyph unicode="&#x2009;" horiz-adv-x="314" />
<glyph unicode="&#x200a;" horiz-adv-x="87" />
<glyph unicode="&#x2010;" horiz-adv-x="760" d="M100 400h560v80h-560v-80z" />
<glyph unicode="&#x2011;" horiz-adv-x="760" d="M100 400h560v80h-560v-80z" />
<glyph unicode="&#x2012;" horiz-adv-x="760" d="M100 400h560v80h-560v-80z" />
<glyph unicode="&#x2013;" horiz-adv-x="1358" d="M200 400h960v80h-960v-80z" />
<glyph unicode="&#x2014;" horiz-adv-x="1758" d="M200 400h1360v80h-1360v-80z" />
<glyph unicode="&#x2018;" horiz-adv-x="386" d="M286 1010q0 64 -64 88q-10 2 -16 4q-44 12 -46 34q2 54 88 144l-42 30q-122 -132 -126 -268q0 -108 80 -128q16 -4 30 -4q64 0 88 60q8 20 8 40z" />
<glyph unicode="&#x2019;" horiz-adv-x="386" d="M306 1168q0 108 -80 128q-16 4 -30 4q-64 0 -88 -60q-8 -20 -8 -40q0 -64 64 -88q10 -2 16 -4q44 -12 46 -34q-2 -54 -88 -144l42 -30q122 132 126 268z" />
<glyph unicode="&#x201a;" horiz-adv-x="328" d="M268 78q0 104 -80 122q-14 4 -28 4q-66 0 -88 -60q-6 -18 -6 -34q0 -64 72 -88q4 -2 8 -2q42 -14 44 -34q-2 -46 -64 -120l42 -28q100 116 100 240z" />
<glyph unicode="&#x201c;" horiz-adv-x="594" d="M70 1042q0 -108 80 -128q16 -4 30 -4q64 0 88 60q8 20 8 40q0 64 -64 88q-10 2 -16 4q-44 12 -46 34q2 54 88 144l-42 30q-122 -132 -126 -268zM328 1042q0 -108 80 -128q16 -4 30 -4q64 0 88 60q8 20 8 40q0 64 -64 88q-10 2 -16 4q-44 12 -46 34q2 54 88 144l-42 30 q-122 -132 -126 -268z" />
<glyph unicode="&#x201d;" horiz-adv-x="610" d="M534 1098q0 108 -80 128q-16 4 -30 4q-64 0 -88 -60q-8 -20 -8 -40q0 -64 64 -88q10 -2 16 -4q44 -12 46 -34q-2 -54 -88 -144l42 -30q122 132 126 268zM276 1098q0 108 -80 128q-16 4 -30 4q-64 0 -88 -60q-8 -20 -8 -40q0 -64 64 -88q10 -2 16 -4q44 -12 46 -34 q-2 -54 -88 -144l42 -30q122 132 126 268z" />
<glyph unicode="&#x201e;" horiz-adv-x="604" d="M534 74q0 108 -80 128q-16 4 -30 4q-64 0 -88 -60q-8 -20 -8 -40q0 -64 64 -88q10 -2 16 -4q44 -12 46 -34q-2 -54 -88 -144l42 -30q122 132 126 268zM276 74q0 108 -80 128q-16 4 -30 4q-64 0 -88 -60q-8 -20 -8 -40q0 -64 64 -88q10 -2 16 -4q44 -12 46 -34 q-2 -54 -88 -144l42 -30q122 132 126 268z" />
<glyph unicode="&#x2022;" horiz-adv-x="736" d="M536 458q0 100 -84 148q-40 22 -84 22q-98 0 -146 -84q-22 -40 -22 -86q0 -96 84 -146q40 -22 84 -22q96 0 144 82q24 42 24 86z" />
<glyph unicode="&#x2026;" horiz-adv-x="1192" d="M698 92q0 66 -60 94q-20 10 -42 10q-66 0 -92 -60q-10 -22 -10 -44q0 -64 58 -92q22 -10 44 -10q64 0 92 58q10 22 10 44zM1092 92q0 66 -60 94q-20 10 -42 10q-66 0 -92 -60q-10 -22 -10 -44q0 -64 58 -92q22 -10 44 -10q64 0 92 58q10 22 10 44zM304 92q0 66 -60 94 q-20 10 -42 10q-66 0 -92 -60q-10 -22 -10 -44q0 -64 58 -92q22 -10 44 -10q64 0 92 58q10 22 10 44z" />
<glyph unicode="&#x202f;" horiz-adv-x="314" />
<glyph unicode="&#x2039;" horiz-adv-x="524" d="M468 756l-40 34q-54 -60 -272 -248q-60 -52 -80 -72q-26 -30 -26 -60q2 -36 26 -64q16 -18 194 -164q116 -94 168 -150l36 32q-26 34 -92 124q-122 164 -166 222q38 50 140 192z" />
<glyph unicode="&#x203a;" horiz-adv-x="524" d="M56 756l40 34q54 -60 272 -248q60 -52 80 -72q26 -30 26 -60q-2 -36 -26 -64q-16 -18 -194 -164q-116 -94 -168 -150l-36 32q26 34 92 124q122 164 166 222q-38 50 -140 192z" />
<glyph unicode="&#x205f;" horiz-adv-x="393" />
<glyph unicode="&#x20ac;" horiz-adv-x="1208" d="M1104 214q0 70 -60 90q-18 6 -34 6q-74 0 -100 -72q-4 -14 -12 -40q-26 -96 -72 -128q-52 -34 -140 -34q-238 0 -294 350q-8 54 -12 114h446l18 58h-466v42v58h488l18 58h-502q22 358 204 428q56 20 124 20q142 0 180 -100q6 -20 16 -58q18 -82 50 -100q24 -14 58 -14 q88 10 94 108q0 104 -136 170q-102 50 -226 50q-344 0 -490 -276q-52 -102 -70 -228h-148l-18 -58h160q-2 -26 -2 -72v-28h-140l-18 -58h162q28 -284 212 -424q124 -96 296 -96q272 0 376 134q38 50 38 100z" />
<glyph unicode="&#x2122;" horiz-adv-x="1138" d="M386 728q-4 26 -26 28h-48v416h14q56 0 76 -50q4 -6 8 -20l24 -70h30l-4 168h-406l-4 -168h30l24 70q20 54 46 64q18 6 38 6h14v-416h-74v-28h258zM780 720l152 396v-360h-54v-28h210q-4 26 -24 28h-26v416h50v28h-160l-128 -334l-166 334h-130v-28h52v-416h-52v-28h152 q-4 26 -26 28h-36v284l168 -320h18z" />
<glyph unicode="&#x25fc;" horiz-adv-x="850" d="M0 850h850v-850h-850v850z" />
</font>
</defs>
</svg>
